<?xml version="1.0" encoding="UTF-8"?>
<svg version="1.1" xmlns="http://www.w3.org/2000/svg" width="500" height="500">
<path d="M0 0 C4.2303069 2.00884591 6.76362646 2.21649048 11.375 0.875 C12.71943236 0.20946589 14.05253933 -0.47931089 15.375 -1.1875 C19.19672362 -3.2129396 22.00311291 -3.70241905 26.375 -3.125 C33.00453355 -0.28377134 36.20276268 4.97833192 38.875 11.375 C42.35326267 20.88225129 46.375 32.70393603 46.375 42.875 C47.21160156 42.85928955 48.04820312 42.8435791 48.91015625 42.82739258 C52.0486416 42.77590995 55.18690988 42.73847892 58.32568359 42.71020508 C60.33836248 42.68790592 62.35084584 42.64976347 64.36328125 42.61132812 C79.27547989 42.49892462 79.27547989 42.49892462 85.5 47.625 C86.56773732 50.37061025 86.39748517 52.24873918 85.41015625 55.015625 C81.15391535 62.66079733 72.09408487 66.63298435 64.375 69.875 C63.715 69.875 63.055 69.875 62.375 69.875 C62.69777659 76.5753968 63.29702331 83.0183961 64.8125 89.5625 C68.33519487 105.22467766 68.87944429 120.87368901 68.375 136.875 C68.35518066 137.78733398 68.33536133 138.69966797 68.31494141 139.63964844 C67.84667964 156.30022327 67.84667964 156.30022327 61.875 163.125 C57.89224138 166.875 57.89224138 166.875 55.375 166.875 C55.106875 167.473125 54.83875 168.07125 54.5625 168.6875 C53.33914758 170.94104393 52.39539668 172.30358036 50.375 173.875 C47.6875 174.5625 47.6875 174.5625 45.375 174.875 C46.035 176.855 46.695 178.835 47.375 180.875 C48.035 180.875 48.695 180.875 49.375 180.875 C50.84765625 182.921875 50.84765625 182.921875 52.4375 185.625 C52.96472656 186.50671875 53.49195313 187.3884375 54.03515625 188.296875 C55.375 190.875 55.375 190.875 56.375 194.875 C52.085 194.875 47.795 194.875 43.375 194.875 C42.92125 193.92625 42.4675 192.9775 42 192 C40.57261746 188.87186321 40.57261746 188.87186321 38.375 186.875 C37.97735737 184.88678687 37.63724651 182.88555661 37.375 180.875 C36.715 180.875 36.055 180.875 35.375 180.875 C35.375 182.525 35.375 184.175 35.375 185.875 C16.235 185.875 -2.905 185.875 -22.625 185.875 C-21.87372886 182.11864431 -21.38494274 180.04289693 -19.625 176.875 C-1.625 176.875 16.375 176.875 34.375 176.875 C34.375 175.885 34.375 174.895 34.375 173.875 C33.06860062 173.92163284 33.06860062 173.92163284 31.73580933 173.96920776 C23.47039115 174.25139559 15.20662087 174.46368415 6.93746758 174.60037041 C2.68715555 174.67301683 -1.55913319 174.7712583 -5.80712891 174.93115234 C-37.09105656 176.07882599 -37.09105656 176.07882599 -45.05026245 168.95071411 C-47.64565168 166.07650417 -49.65394316 163.21603211 -51.625 159.875 C-52.285 158.885 -52.945 157.895 -53.625 156.875 C-54.10550803 154.08390088 -54.47328875 151.37487699 -54.75 148.5625 C-54.8334668 147.72726807 -54.91693359 146.89203613 -55.00292969 146.03149414 C-57.08005746 123.10466648 -54.92668262 100.56188024 -49.9921875 78.12890625 C-49.59271556 75.67682851 -49.56376171 73.35515091 -49.625 70.875 C-50.78257812 70.30652344 -51.94015625 69.73804688 -53.1328125 69.15234375 C-54.67229107 68.3732174 -56.2113305 67.59322293 -57.75 66.8125 C-58.89082031 66.2565918 -58.89082031 66.2565918 -60.0546875 65.68945312 C-66.2230885 62.52548882 -70.90890682 58.66846914 -73.8125 52.25 C-73.625 49.875 -73.625 49.875 -71.5625 47.1875 C-66.59845343 43.27963355 -61.90439205 42.62578032 -55.6953125 42.4609375 C-53.76171875 42.40292969 -53.76171875 42.40292969 -51.7890625 42.34375 C-50.44271293 42.31230242 -49.09635868 42.28105489 -47.75 42.25 C-46.38018486 42.21176959 -45.01039245 42.17271499 -43.640625 42.1328125 C-40.30221737 42.03877285 -36.96381186 41.95311943 -33.625 41.875 C-33.47466309 41.11993164 -33.32432617 40.36486328 -33.16943359 39.58691406 C-32.46385106 36.0958005 -31.73209498 32.61064624 -31 29.125 C-30.76410156 27.93777344 -30.52820313 26.75054687 -30.28515625 25.52734375 C-28.14674361 15.49325368 -25.03010342 4.46278376 -16.625 -2.125 C-10.81541996 -4.06152668 -5.37869276 -2.66171611 0 0 Z M-24.625 35.875 C-25.51886164 38.42275306 -25.51886164 38.42275306 -25.625 40.875 C-23.73394531 40.76671875 -23.73394531 40.76671875 -21.8046875 40.65625 C-1.67966055 39.56368188 18.25665332 39.72302923 38.375 40.875 C38.26886164 38.42275306 38.26886164 38.42275306 37.375 35.875 C28.24072301 31.29793295 16.28940683 32.72025678 6.375 32.75 C5.0859375 32.74613281 3.796875 32.74226563 2.46875 32.73828125 C-11.43904743 32.2786821 -11.43904743 32.2786821 -24.625 35.875 Z M-30.625 50.875 C-30.625 51.535 -30.625 52.195 -30.625 52.875 C-31.285 52.875 -31.945 52.875 -32.625 52.875 C-32.625 53.535 -32.625 54.195 -32.625 54.875 C-33.285 54.875 -33.945 54.875 -34.625 54.875 C-34.625 55.535 -34.625 56.195 -34.625 56.875 C-35.285 56.875 -35.945 56.875 -36.625 56.875 C-38.4028303 60.84980469 -39.20712761 64.61091253 -39.87890625 68.90625 C-39.98468491 69.57861694 -40.09046356 70.25098389 -40.19944763 70.94372559 C-40.42158491 72.36535486 -40.64077143 73.78744799 -40.85717773 75.20996094 C-41.18244297 77.34185457 -41.51916359 79.47169661 -41.85742188 81.6015625 C-45.45941744 104.64751919 -50.35509756 138.65648377 -36.3046875 159.31640625 C-28.12608755 166.9053862 -4.06530873 164.06920473 6.5 164.0625 C7.49649567 164.06259064 7.49649567 164.06259064 8.51312256 164.06268311 C17.20442353 164.05150742 25.84321299 163.81454551 34.5 163 C35.33934082 162.92160889 36.17868164 162.84321777 37.04345703 162.76245117 C41.09487892 162.3214542 44.72184011 161.80821644 48.375 159.875 C63.07755082 140.71713075 58.00280573 107.25775994 55.234375 85.22265625 C54.48985682 79.6177145 53.70666183 74.02064415 52.8125 68.4375 C52.64077271 67.355896 52.64077271 67.355896 52.46557617 66.25244141 C51.87409283 62.82091578 51.16650413 59.88134384 49.375 56.875 C48.715 56.875 48.055 56.875 47.375 56.875 C47.375 56.215 47.375 55.555 47.375 54.875 C46.715 54.875 46.055 54.875 45.375 54.875 C45.375 54.215 45.375 53.555 45.375 52.875 C40.57660216 51.86125398 36.16309716 51.94778554 31.3125 52.3125 C-12.07686666 55.05535581 -12.07686666 55.05535581 -30.625 50.875 Z " fill="#294259" transform="translate(243.625,134.125)"/>
<path d="M0 0 C27.39 0 54.78 0 83 0 C86.45101351 23.00675676 86.45101351 23.00675676 86.1875 34.25 C86.16719727 35.97476563 86.16719727 35.97476563 86.14648438 37.734375 C86.11203719 40.49014994 86.06338726 43.24476705 86 46 C83.1920856 47.30248456 80.37931014 48.59200846 77.5625 49.875 C76.77939453 50.23980469 75.99628906 50.60460937 75.18945312 50.98046875 C64.56752019 55.78875115 54.77112809 56.37289278 43.22705078 56.37060547 C40.7691447 56.37496604 38.31305708 56.41133401 35.85546875 56.44921875 C23.38789602 56.53923335 12.97201237 54.20624774 1.6875 48.75 C0.59824219 48.22921875 -0.49101562 47.7084375 -1.61328125 47.171875 C-2.40089844 46.78515625 -3.18851563 46.3984375 -4 46 C-4.54913295 9.0982659 -4.54913295 9.0982659 0 0 Z " fill="#253E56" transform="translate(209,206)"/>
<path d="M0 0 C4.2303069 2.00884591 6.76362646 2.21649048 11.375 0.875 C12.71943236 0.20946589 14.05253933 -0.47931089 15.375 -1.1875 C19.19672362 -3.2129396 22.00311291 -3.70241905 26.375 -3.125 C32.00052728 -0.71405974 35.24783196 3.40952293 37.73046875 8.83984375 C42.14081318 19.92390584 43.70684887 28.9468768 43.375 40.875 C41.395 40.215 39.415 39.555 37.375 38.875 C37.375 37.885 37.375 36.895 37.375 35.875 C26.93511237 34.00716068 16.65571553 33.68232058 6.0625 33.6875 C4.78810059 33.68685547 3.51370117 33.68621094 2.20068359 33.68554688 C-6.83834101 33.73731273 -15.76060638 33.99401651 -24.625 35.875 C-24.625 37.195 -24.625 38.515 -24.625 39.875 C-22.315 40.205 -20.005 40.535 -17.625 40.875 C-17.625 41.205 -17.625 41.535 -17.625 41.875 C-23.07 42.37 -23.07 42.37 -28.625 42.875 C-28.955 41.225 -29.285 39.575 -29.625 37.875 C-30.285 37.875 -30.945 37.875 -31.625 37.875 C-30.97668128 24.38997067 -28.0573195 10.22622228 -19 -0.125 C-13.24195943 -4.97387627 -6.25713247 -3.09642343 0 0 Z " fill="#274158" transform="translate(243.625,134.125)"/>
<path d="M0 0 C0.33 0 0.66 0 1 0 C0.38047353 6.8102358 -0.48230063 13.55148549 -1.5 20.3125 C-4.77651902 42.92856899 -7.18604133 68.13157529 1 90 C1.22945312 90.69222656 1.45890625 91.38445312 1.6953125 92.09765625 C2.53317146 94.33496771 2.53317146 94.33496771 5 97 C8.63222086 98.17049892 12.20504217 98.67939149 16 99 C12.25 101 12.25 101 10 101 C10 101.66 10 102.32 10 103 C10.66 103 11.32 103 12 103 C12.33 104.65 12.66 106.3 13 108 C13.66 108 14.32 108 15 108 C15 108.66 15 109.32 15 110 C39.75 110 64.5 110 90 110 C90 110.33 90 110.66 90 111 C88.35 111.33 86.7 111.66 85 112 C85.66 113.98 86.32 115.96 87 118 C87.66 118 88.32 118 89 118 C90.47265625 120.046875 90.47265625 120.046875 92.0625 122.75 C92.58972656 123.63171875 93.11695313 124.5134375 93.66015625 125.421875 C95 128 95 128 96 132 C91.71 132 87.42 132 83 132 C82.54625 131.05125 82.0925 130.1025 81.625 129.125 C80.19761746 125.99686321 80.19761746 125.99686321 78 124 C77.60235737 122.01178687 77.26224651 120.01055661 77 118 C76.34 118 75.68 118 75 118 C75 119.65 75 121.3 75 123 C55.86 123 36.72 123 17 123 C17.75127114 119.24364431 18.24005726 117.16789693 20 114 C38 114 56 114 74 114 C74 113.01 74 112.02 74 111 C72.69360062 111.04663284 72.69360062 111.04663284 71.36080933 111.09420776 C63.09539115 111.37639559 54.83162087 111.58868415 46.56246758 111.72537041 C42.31215555 111.79801683 38.06586681 111.8962583 33.81787109 112.05615234 C2.53394344 113.20382599 2.53394344 113.20382599 -5.42526245 106.07571411 C-8.02065168 103.20150417 -10.02894316 100.34103211 -12 97 C-12.66 96.01 -13.32 95.02 -14 94 C-14.48050803 91.20890088 -14.84828875 88.49987699 -15.125 85.6875 C-15.2084668 84.85226807 -15.29193359 84.01703613 -15.37792969 83.15649414 C-17.38210515 61.03489619 -15.44397525 39.31154452 -10.875 17.625 C-10.1316665 14.02447837 -9.80567751 10.69212736 -10 7 C-9.34 7 -8.68 7 -8 7 C-7 13.625 -7 13.625 -7 17 C-6.566875 15.3603125 -6.566875 15.3603125 -6.125 13.6875 C-5 10 -5 10 -3 7 C-2.34 7 -1.68 7 -1 7 C-1.020625 6.030625 -1.04125 5.06125 -1.0625 4.0625 C-1 1 -1 1 0 0 Z " fill="#2C445D" transform="translate(204,197)"/>
<path d="M0 0 C0.6770549 -0.0071553 1.3541098 -0.01431061 2.05168152 -0.02168274 C4.27855937 -0.03852364 6.50341086 -0.01920016 8.73022461 0.00219727 C10.2829149 0.00136822 11.8356051 -0.00109251 13.38829041 -0.00511169 C16.63738521 -0.00796637 19.88578937 0.00669969 23.13476562 0.03417969 C27.29690264 0.06829139 31.45780738 0.06223227 35.6200037 0.04351711 C38.82427727 0.03294395 42.02826456 0.04188713 45.23251152 0.05690193 C46.76708564 0.06208003 48.30168971 0.06160643 49.83625984 0.05535698 C51.98133687 0.04989936 54.12465479 0.07029173 56.26953125 0.09765625 C57.48911026 0.10385483 58.70868927 0.11005341 59.96522522 0.11643982 C63.66270406 0.72933974 64.79620636 1.71636996 67.07006836 4.63110352 C69.01139329 8.41668713 69.07006836 10.15859285 69.07006836 14.63110352 C42.01006836 14.63110352 14.95006836 14.63110352 -12.92993164 14.63110352 C-11.92993164 5.63110352 -11.92993164 5.63110352 -9.80055237 2.60804749 C-6.26048759 0.17006964 -4.27759427 0.00337112 0 0 Z " fill="#1F3B53" transform="translate(221.929931640625,189.368896484375)"/>
<path d="M0 0 C2.4375 1.8125 2.4375 1.8125 3.3125 4.5 C3.35375 5.263125 3.395 6.02625 3.4375 6.8125 C2.7775 6.8125 2.1175 6.8125 1.4375 6.8125 C1.4375 7.4725 1.4375 8.1325 1.4375 8.8125 C-0.4375 9.4375 -0.4375 9.4375 -2.5625 9.8125 C-3.2225 9.1525 -3.8825 8.4925 -4.5625 7.8125 C-6.77322977 7.56996187 -6.77322977 7.56996187 -9.1875 7.6875 C-10.41339844 7.71457031 -10.41339844 7.71457031 -11.6640625 7.7421875 C-12.60378906 7.77699219 -12.60378906 7.77699219 -13.5625 7.8125 C-15.05334832 12.28504497 -15.05334832 16.33995503 -13.5625 20.8125 C-9.16154164 20.98176763 -6.43535627 20.81570152 -2.5625 18.8125 C-0.5 18.9375 -0.5 18.9375 1.4375 19.8125 C2.46983716 21.12095625 3.47368329 22.45278124 4.4375 23.8125 C4.72882813 23.08546875 5.02015625 22.3584375 5.3203125 21.609375 C13.35957792 1.89042208 13.35957792 1.89042208 16.4375 -1.1875 C19.10808851 -1.32865161 21.76182238 -1.22997107 24.4375 -1.1875 C25.12585938 0.2975 25.12585938 0.2975 25.828125 1.8125 C26.44766668 3.14594951 27.06747567 4.47927484 27.6875 5.8125 C28.0067041 6.49932861 28.3259082 7.18615723 28.65478516 7.89379883 C30.31829113 11.46008219 32.01247677 14.99995483 33.8125 18.5 C35.62976619 22.20442723 36.4375 24.70445297 36.4375 28.8125 C33.4675 28.8125 30.4975 28.8125 27.4375 28.8125 C26.7775 27.4925 26.1175 26.1725 25.4375 24.8125 C21.8075 24.8125 18.1775 24.8125 14.4375 24.8125 C13.7775 26.1325 13.1175 27.4525 12.4375 28.8125 C11.02094207 28.8397415 9.60422955 28.85900467 8.1875 28.875 C7.00414062 28.89240234 7.00414062 28.89240234 5.796875 28.91015625 C3.4375 28.8125 3.4375 28.8125 1.2734375 28.24609375 C-0.65896153 27.58865889 -0.65896153 27.58865889 -2.6875 28.8125 C-7.08563117 30.34228475 -11.05962204 29.80111263 -15.5625 28.8125 C-19.27727364 26.98888385 -21.08065089 25.5031504 -23.4375 22.125 C-25.3016273 16.63618072 -25.12177815 11.3705721 -23.5625 5.8125 C-22.9025 5.8125 -22.2425 5.8125 -21.5625 5.8125 C-21.35625 5.214375 -21.15 4.61625 -20.9375 4 C-16.50067552 -3.0585844 -6.97391395 -2.32463798 0 0 Z M19.4375 9.8125 C18.7775 11.7925 18.1175 13.7725 17.4375 15.8125 C18.7575 15.8125 20.0775 15.8125 21.4375 15.8125 C21.4375 14.1625 21.4375 12.5125 21.4375 10.8125 C20.7775 10.4825 20.1175 10.1525 19.4375 9.8125 Z " fill="#324862" transform="translate(144.5625,348.1875)"/>
<path d="M0 0 C2.05078125 0.03255208 4.1015625 0.06510417 6.15234375 0.09765625 C8.90175104 5.49464094 11.46034605 10.94299916 13.90625 16.484375 C15.12844915 19.16290659 15.12844915 19.16290659 16.8046875 21.8046875 C18.15234375 24.09765625 18.15234375 24.09765625 18.15234375 26.09765625 C18.81234375 26.09765625 19.47234375 26.09765625 20.15234375 26.09765625 C20.14710693 25.34556885 20.14187012 24.59348145 20.13647461 23.81860352 C20.11577148 20.43246283 20.10270498 17.04633541 20.08984375 13.66015625 C20.08146484 12.47615234 20.07308594 11.29214844 20.06445312 10.07226562 C20.06123047 8.94755859 20.05800781 7.82285156 20.0546875 6.6640625 C20.04945068 5.62193604 20.04421387 4.57980957 20.03881836 3.50610352 C20.15234375 1.09765625 20.15234375 1.09765625 21.15234375 0.09765625 C23.82293226 -0.04349536 26.47666613 0.05518518 29.15234375 0.09765625 C30.38926026 3.93602414 30.28517665 7.6536297 30.27734375 11.66015625 C30.28314453 12.66852539 30.28314453 12.66852539 30.2890625 13.69726562 C30.28295448 16.77265377 30.13225604 19.15791938 29.15234375 22.09765625 C30.15136719 22.08605469 31.15039062 22.07445312 32.1796875 22.0625 C33.47003906 22.05347656 34.76039063 22.04445313 36.08984375 22.03515625 C37.37761719 22.02355469 38.66539062 22.01195312 39.9921875 22 C43.15234375 22.09765625 43.15234375 22.09765625 44.15234375 23.09765625 C44.15234375 25.40765625 44.15234375 27.71765625 44.15234375 30.09765625 C32.60234375 30.09765625 21.05234375 30.09765625 9.15234375 30.09765625 C8.65734375 27.62265625 8.65734375 27.62265625 8.15234375 25.09765625 C4.19234375 25.42765625 0.23234375 25.75765625 -3.84765625 26.09765625 C-4.17765625 27.41765625 -4.50765625 28.73765625 -4.84765625 30.09765625 C-8.14765625 30.09765625 -11.44765625 30.09765625 -14.84765625 30.09765625 C-15.17765625 29.10765625 -15.50765625 28.11765625 -15.84765625 27.09765625 C-15.30496094 26.4325 -14.76226562 25.76734375 -14.203125 25.08203125 C-10.8955928 20.89139344 -9.17325472 16.26266768 -7.16015625 11.34765625 C-6.36654926 9.43538086 -5.5710781 7.52387767 -4.7734375 5.61328125 C-4.42708252 4.77055664 -4.08072754 3.92783203 -3.72387695 3.05957031 C-2.41441973 0.12761204 -2.41441973 0.12761204 0 0 Z M1.15234375 12.09765625 C1.48234375 13.08765625 1.81234375 14.07765625 2.15234375 15.09765625 C1.16234375 15.59265625 1.16234375 15.59265625 0.15234375 16.09765625 C1.47234375 16.42765625 2.79234375 16.75765625 4.15234375 17.09765625 C3.82234375 15.44765625 3.49234375 13.79765625 3.15234375 12.09765625 C2.49234375 12.09765625 1.83234375 12.09765625 1.15234375 12.09765625 Z " fill="#405369" transform="translate(301.84765625,346.90234375)"/>
<path d="M0 0 C44.055 0.495 44.055 0.495 89 1 C89 1.33 89 1.66 89 2 C87.35 2.33 85.7 2.66 84 3 C84.99 5.97 84.99 5.97 86 9 C86.66 9 87.32 9 88 9 C89.47265625 11.046875 89.47265625 11.046875 91.0625 13.75 C91.58972656 14.63171875 92.11695313 15.5134375 92.66015625 16.421875 C94 19 94 19 95 23 C90.71 23 86.42 23 82 23 C81.319375 21.576875 81.319375 21.576875 80.625 20.125 C79.19761746 16.99686321 79.19761746 16.99686321 77 15 C76.60235737 13.01178687 76.26224651 11.01055661 76 9 C75.34 9 74.68 9 74 9 C74 10.65 74 12.3 74 14 C54.86 14 35.72 14 16 14 C16.75127114 10.24364431 17.24005726 8.16789693 19 5 C37 5 55 5 73 5 C73 4.01 73 3.02 73 2 C49.24 2 25.48 2 1 2 C0.67 1.34 0.34 0.68 0 0 Z " fill="#2D465D" transform="translate(205,306)"/>
<path d="M0 0 C1.60875 -0.00386719 1.60875 -0.00386719 3.25 -0.0078125 C6 0.125 6 0.125 8 1.125 C11.21798812 1.15611314 14.42398057 1.05748904 17.640625 0.96484375 C21.13025891 1.13121002 23.74530701 1.90333762 27 3.125 C28.66088045 3.48606097 30.32618981 3.82962173 32 4.125 C31.34 5.775 30.68 7.425 30 9.125 C29.34 9.125 28.68 9.125 28 9.125 C28 9.785 28 10.445 28 11.125 C27.34 11.125 26.68 11.125 26 11.125 C26 11.785 26 12.445 26 13.125 C25.34 13.125 24.68 13.125 24 13.125 C22.53060547 17.42822683 21.22556737 21.74797367 20 26.125 C19.34 26.125 18.68 26.125 18 26.125 C18.04125 26.888125 18.0825 27.65125 18.125 28.4375 C17.93816235 32.45450944 15.77814092 34.47313821 13 37.125 C12.67 36.135 12.34 35.145 12 34.125 C12.33 33.465 12.66 32.805 13 32.125 C13.039992 30.12539988 13.04346799 28.12452758 13 26.125 C12.1440625 26.02445313 11.288125 25.92390625 10.40625 25.8203125 C2.32383824 24.17046239 -6.1024006 19.46694387 -11.03515625 12.75 C-12.4511035 10.36524673 -13.22180847 8.93457397 -13 6.125 C-8.76680837 1.09093428 -6.41783928 -0.0154275 0 0 Z " fill="#243E56" transform="translate(183,177.875)"/>
<path d="M0 0 C3.8125 0.6875 3.8125 0.6875 5.609375 2.8125 C9.8125 9.69761905 9.8125 9.69761905 9.8125 13.6875 C10.4725 13.6875 11.1325 13.6875 11.8125 13.6875 C12.1425 14.3475 12.4725 15.0075 12.8125 15.6875 C13.4725 14.3675 14.1325 13.0475 14.8125 11.6875 C15.4725 11.6875 16.1325 11.6875 16.8125 11.6875 C16.915625 11.15125 17.01875 10.615 17.125 10.0625 C18.00069532 7.03737072 19.28497161 4.4370511 20.8125 1.6875 C23.54497348 0.32126326 25.79448902 0.559074 28.8125 0.6875 C31.35181633 3.22681633 30.30259819 10.00940705 30.4375 13.4375 C30.4890625 14.53578125 30.540625 15.6340625 30.59375 16.765625 C30.63757813 17.8278125 30.68140625 18.89 30.7265625 19.984375 C30.7673291 20.95729492 30.8080957 21.93021484 30.85009766 22.93261719 C30.81302486 25.64904195 30.43459227 28.0488671 29.8125 30.6875 C27.1725 30.6875 24.5325 30.6875 21.8125 30.6875 C20.55012269 28.16274538 20.71393596 26.37549534 20.75 23.5625 C20.75902344 22.65242188 20.76804687 21.74234375 20.77734375 20.8046875 C20.78894531 20.10601562 20.80054688 19.40734375 20.8125 18.6875 C20.379375 20.1415625 20.379375 20.1415625 19.9375 21.625 C18.8125 24.6875 18.8125 24.6875 16.8125 25.6875 C16.4825 26.6775 16.1525 27.6675 15.8125 28.6875 C14.1625 28.6875 12.5125 28.6875 10.8125 28.6875 C10.1525 27.0375 9.4925 25.3875 8.8125 23.6875 C5.58845022 25.35704819 5.58845022 25.35704819 5.125 28.3125 C4.9703125 29.488125 4.9703125 29.488125 4.8125 30.6875 C1.8425 30.6875 -1.1275 30.6875 -4.1875 30.6875 C-4.21215746 26.5757744 -4.23033959 22.46407722 -4.24243164 18.35229492 C-4.2474708 16.95254772 -4.25430216 15.5528058 -4.26293945 14.15307617 C-4.2750232 12.14504223 -4.28019807 10.13697043 -4.28515625 8.12890625 C-4.29039307 6.91920166 -4.29562988 5.70949707 -4.30102539 4.46313477 C-4.13908923 0.50388268 -3.94475085 0.85082861 0 0 Z " fill="#233A51" transform="translate(255.1875,346.3125)"/>
<path d="M0 0 C5.51226866 0.96245961 7.08806712 3.86190736 10.3359375 8.20703125 C11.9375 10.6875 11.9375 10.6875 12.9375 13.6875 C13.5975 13.6875 14.2575 13.6875 14.9375 13.6875 C15.2675 9.3975 15.5975 5.1075 15.9375 0.6875 C18.5775 0.6875 21.2175 0.6875 23.9375 0.6875 C24.1359578 4.37449487 24.31928602 8.06209622 24.5 11.75 C24.55607422 12.78833984 24.61214844 13.82667969 24.66992188 14.89648438 C24.92860625 20.32885615 24.96157652 25.33954485 23.9375 30.6875 C21.2975 30.6875 18.6575 30.6875 15.9375 30.6875 C15.9375 30.0275 15.9375 29.3675 15.9375 28.6875 C15.2775 28.6875 14.6175 28.6875 13.9375 28.6875 C12.53515625 27.04296875 12.53515625 27.04296875 11 24.875 C9.13202718 22.25219417 7.27880807 19.90300645 4.9375 17.6875 C5.02128906 18.45835937 5.10507813 19.22921875 5.19140625 20.0234375 C5.29324219 21.02632813 5.39507812 22.02921875 5.5 23.0625 C5.60441406 24.06023437 5.70882812 25.05796875 5.81640625 26.0859375 C5.9375 28.6875 5.9375 28.6875 4.9375 30.6875 C1.9675 30.6875 -1.0025 30.6875 -4.0625 30.6875 C-4.08715746 26.5757744 -4.10533959 22.46407722 -4.11743164 18.35229492 C-4.1224708 16.95254772 -4.12930216 15.5528058 -4.13793945 14.15307617 C-4.1500232 12.14504223 -4.15519807 10.13697043 -4.16015625 8.12890625 C-4.16539307 6.91920166 -4.17062988 5.70949707 -4.17602539 4.46313477 C-4.01658349 0.56486599 -3.85203365 0.86474225 0 0 Z " fill="#3E556C" transform="translate(187.0625,346.3125)"/>
<path d="M0 0 C3.40692151 2.08200759 6.16110142 3.89350237 8.25 7.375 C9.34584526 12.46429362 9.91017656 17.39447031 8.25 22.375 C7.59 22.375 6.93 22.375 6.25 22.375 C6.0025 22.973125 5.755 23.57125 5.5 24.1875 C3.67553562 27.38031267 1.55053301 29.02010498 -2.01171875 29.9921875 C-8.13567004 30.64304223 -13.23701047 30.32276175 -18.75 27.375 C-22.48157346 23.64342654 -23.88884035 20.35306957 -24.0625 15.125 C-23.98452321 10.32942768 -22.91979369 7.00568358 -19.75 3.375 C-13.59332212 -1.42720875 -7.5153517 -1.70803448 0 0 Z M-13.75 8.375 C-15.34312786 11.56125571 -15.29169041 14.88566956 -14.75 18.375 C-13.01330048 21.71575097 -13.01330048 21.71575097 -9.375 22.1875 C-5.90257665 22.3671081 -4.49931499 22.3841148 -1.75 20.375 C-0.22153339 17.31806678 -0.51757555 14.74515453 -0.75 11.375 C-1.56452316 8.81648975 -1.56452316 8.81648975 -3.75 7.375 C-7.31124386 6.72210529 -10.48582328 6.74291164 -13.75 8.375 Z " fill="#375069" transform="translate(238.75,347.625)"/>
<path d="M0 0 C0.33 0 0.66 0 1 0 C0.56879584 4.80207472 0.11022544 9.5824336 -0.68359375 14.33984375 C-3.51925839 31.44928962 -4.18310022 48.70137709 -5 66 C-5.33 66 -5.66 66 -6 66 C-6.33 63.03 -6.66 60.06 -7 57 C-9.41645782 56.83312552 -9.41645782 56.83312552 -12 57 C-14.93447357 59.93447357 -14.46158423 63.18259456 -14.625 67.125 C-14.66367188 67.87910156 -14.70234375 68.63320313 -14.7421875 69.41015625 C-14.83651031 71.27303184 -14.91934662 73.13648255 -15 75 C-15.33 75 -15.66 75 -16 75 C-16.35795549 55.44461615 -14.91145379 36.78394265 -10.875 17.625 C-10.1316665 14.02447837 -9.80567751 10.69212736 -10 7 C-9.34 7 -8.68 7 -8 7 C-7 13.625 -7 13.625 -7 17 C-6.566875 15.3603125 -6.566875 15.3603125 -6.125 13.6875 C-5 10 -5 10 -3 7 C-2.34 7 -1.68 7 -1 7 C-1.020625 6.030625 -1.04125 5.06125 -1.0625 4.0625 C-1 1 -1 1 0 0 Z " fill="#3E5266" transform="translate(204,197)"/>
<path d="M0 0 C3.03333332 -0.22893082 5.97318834 -0.34883468 9 0 C11.0625 1.8125 11.0625 1.8125 12 4 C12 4.99 12 5.98 12 7 C12.66 7 13.32 7 14 7 C14.99 8.485 14.99 8.485 16 10 C16.34933594 9.36191406 16.69867188 8.72382813 17.05859375 8.06640625 C17.51363281 7.24011719 17.96867187 6.41382813 18.4375 5.5625 C19.11619141 4.32693359 19.11619141 4.32693359 19.80859375 3.06640625 C21 1 21 1 22 0 C24.67058851 -0.14115161 27.32432238 -0.04247107 30 0 C29.43571845 4.26689613 27.91947299 6.93268953 25.5625 10.5 C21.71526894 16.83847085 20.57872345 22.67737672 20 30 C16.7 30 13.4 30 10 30 C10.165 28.453125 10.33 26.90625 10.5 25.3125 C10.55217774 18.58157129 7.63564654 14.36683775 3.9453125 9.04296875 C2.03820619 6.0597643 0.96318463 3.39142379 0 0 Z " fill="#354B64" transform="translate(343,347)"/>
<path d="M0 0 C2.38521058 3.57781586 2.68924866 6.64775722 3.125 10.8125 C3.2084668 11.60221191 3.29193359 12.39192383 3.37792969 13.20556641 C4.96981426 29.900862 4.01760685 46.39077221 2 63 C1.67 63 1.34 63 1 63 C1 60.36 1 57.72 1 55 C-0.32 55.99 -1.64 56.98 -3 58 C-3.33 56.35 -3.66 54.7 -4 53 C-4.33 53.66 -4.66 54.32 -5 55 C-7 53 -7 53 -7.125 49.875 C-7.08375 48.92625 -7.0425 47.9775 -7 47 C-7.66 47.66 -8.32 48.32 -9 49 C-8.34 36.79 -7.68 24.58 -7 12 C-6.67 12 -6.34 12 -6 12 C-5.67 16.29 -5.34 20.58 -5 25 C-2.8614515 22.8614515 -2.57344937 21.86724686 -2 19 C-1.01 19 -0.02 19 1 19 C0.67 18.01 0.34 17.02 0 16 C-0.04406878 14.14635711 -0.03949392 12.29124601 0 10.4375 C0.18366247 6.56876349 0.18366247 6.56876349 -1 3 C-0.67 2.01 -0.34 1.02 0 0 Z " fill="#2D445B" transform="translate(308,228)"/>
<path d="M0 0 C0.94552734 0.16242188 0.94552734 0.16242188 1.91015625 0.328125 C4.3667347 4.01299268 3.98646966 5.97826047 3.91015625 10.328125 C4.3387062 12.63849415 4.3387062 12.63849415 4.91015625 14.328125 C3.92015625 14.328125 2.93015625 14.328125 1.91015625 14.328125 C1.25015625 13.008125 0.59015625 11.688125 -0.08984375 10.328125 C-1.07984375 10.328125 -2.06984375 10.328125 -3.08984375 10.328125 C-3.74984375 12.968125 -4.40984375 15.608125 -5.08984375 18.328125 C-3.10984375 18.328125 -1.12984375 18.328125 0.91015625 18.328125 C1.24015625 17.338125 1.57015625 16.348125 1.91015625 15.328125 C2.57015625 15.328125 3.23015625 15.328125 3.91015625 15.328125 C3.69359375 16.1634375 3.69359375 16.1634375 3.47265625 17.015625 C2.88246497 19.44196695 2.38672725 21.87718845 1.91015625 24.328125 C-1.38984375 24.328125 -4.68984375 24.328125 -8.08984375 24.328125 C-8.41984375 26.308125 -8.74984375 28.288125 -9.08984375 30.328125 C-12.38984375 30.328125 -15.68984375 30.328125 -19.08984375 30.328125 C-19.41984375 29.338125 -19.74984375 28.348125 -20.08984375 27.328125 C-19.54714844 26.66296875 -19.00445312 25.9978125 -18.4453125 25.3125 C-15.1377803 21.12186219 -13.41544222 16.49313643 -11.40234375 11.578125 C-10.60873676 9.66584961 -9.8132656 7.75434642 -9.015625 5.84375 C-8.66927002 5.00102539 -8.32291504 4.15830078 -7.96606445 3.29003906 C-6.22632037 -0.60535895 -4.04628909 0.14687075 0 0 Z " fill="#1B334F" transform="translate(306.08984375,346.671875)"/>
<path d="M0 0 C44.055 0.495 44.055 0.495 89 1 C89 1.33 89 1.66 89 2 C87.35 2.33 85.7 2.66 84 3 C84.99 5.97 84.99 5.97 86 9 C86.66 9 87.32 9 88 9 C89.47265625 11.046875 89.47265625 11.046875 91.0625 13.75 C91.58972656 14.63171875 92.11695313 15.5134375 92.66015625 16.421875 C94 19 94 19 95 23 C90.71 23 86.42 23 82 23 C81.319375 21.576875 81.319375 21.576875 80.625 20.125 C79.19761746 16.99686321 79.19761746 16.99686321 77 15 C76.60235737 13.01178687 76.26224651 11.01055661 76 9 C75.34 9 74.68 9 74 9 C73.505 5.535 73.505 5.535 73 2 C49.24 2 25.48 2 1 2 C0.67 1.34 0.34 0.68 0 0 Z " fill="#73879A" transform="translate(205,306)"/>
<path d="M0 0 C6.68675522 0.29718912 13.23154107 2.66036588 19 6 C22.04825591 10.10213869 22.91835176 14.09098107 24 19 C16.70968976 19.2494783 10.09326321 18.72330907 3 17 C3 16.34 3 15.68 3 15 C2.34 15 1.68 15 1 15 C-0.32558098 10.19476896 -1.36809815 6.03067466 -1 1 C-0.67 0.67 -0.34 0.34 0 0 Z " fill="#324A61" transform="translate(206,260)"/>
<path d="M0 0 C0.42424242 12.09090909 0.42424242 12.09090909 -3.5625 16.875 C-10.07458653 19.8805784 -17.97917329 19.13191532 -25 19 C-24.54554036 17.58208592 -24.08625056 16.16571954 -23.625 14.75 C-23.24214844 13.56664062 -23.24214844 13.56664062 -22.8515625 12.359375 C-22.57054687 11.58078125 -22.28953125 10.8021875 -22 10 C-21.79890625 9.3090625 -21.5978125 8.618125 -21.390625 7.90625 C-19.11453911 4.78622215 -15.6473394 3.97190889 -12.125 2.75 C-11.40441406 2.481875 -10.68382812 2.21375 -9.94140625 1.9375 C-6.4140826 0.66428557 -3.78658955 0 0 0 Z " fill="#2A435B" transform="translate(295,260)"/>
<path d="M0 0 C3.28353809 2.00660661 5.6235342 4.5652924 8.25 7.375 C7.92 8.365 7.59 9.355 7.25 10.375 C6.59 9.385 5.93 8.395 5.25 7.375 C5.25 8.365 5.25 9.355 5.25 10.375 C4.26 10.87 4.26 10.87 3.25 11.375 C2.92 12.365 2.59 13.355 2.25 14.375 C2.25 13.385 2.25 12.395 2.25 11.375 C1.59 11.375 0.93 11.375 0.25 11.375 C0.25 14.015 0.25 16.655 0.25 19.375 C-0.41 19.045 -1.07 18.715 -1.75 18.375 C-1.70875 17.281875 -1.6675 16.18875 -1.625 15.0625 C-1.42925334 11.28607771 -1.42925334 11.28607771 -3.75 8.375 C-8.31228926 8.00707345 -11.82242087 7.75661391 -15.75 10.375 C-15.75 9.715 -15.75 9.055 -15.75 8.375 C-16.36875 8.560625 -16.9875 8.74625 -17.625 8.9375 C-19.75 9.375 -19.75 9.375 -21.75 8.375 C-22.08 12.005 -22.41 15.635 -22.75 19.375 C-23.08 19.375 -23.41 19.375 -23.75 19.375 C-24.19493895 13.92449782 -24.17155456 9.5351253 -21.06640625 4.8828125 C-15.3835269 -1.62636088 -7.94766489 -1.80628747 0 0 Z " fill="#4A5F74" transform="translate(238.75,347.625)"/>
<path d="M0 0 C3.63 0 7.26 0 11 0 C11 1.98 11 3.96 11 6 C10.01 6 9.02 6 8 6 C7.88785156 6.55171875 7.77570313 7.1034375 7.66015625 7.671875 C6.41952916 12.04710426 4.06927876 15.96755933 2 20 C-2.29 20 -6.58 20 -11 20 C-10.10823957 16.43295828 -9.61084804 15.18037522 -7.5 12.4375 C-5.76352292 10.17099358 -4.92509236 8.77527707 -4 6 C-3.34 6 -2.68 6 -2 6 C-1.34 4.02 -0.68 2.04 0 0 Z " fill="#4B6278" transform="translate(211,309)"/>
<path d="M0 0 C2.31 0 4.62 0 7 0 C7.19859939 3.52029806 7.38186528 7.04123805 7.5625 10.5625 C7.61857422 11.55314453 7.67464844 12.54378906 7.73242188 13.56445312 C7.99747116 18.88310883 7.99167749 23.76247369 7 29 C5.02 29 3.04 29 1 29 C0.71125 28.030625 0.4225 27.06125 0.125 26.0625 C-0.64214682 22.89335797 -0.64214682 22.89335797 -3 22 C-2.68289062 21.00871094 -2.36578125 20.01742188 -2.0390625 18.99609375 C-0.90616541 15.03095395 -0.593831 11.18381716 -0.375 7.0625 C-0.33632812 6.37865234 -0.29765625 5.69480469 -0.2578125 4.99023438 C-0.16477588 3.32720487 -0.08136213 1.66364153 0 0 Z " fill="#213951" transform="translate(204,348)"/>
<path d="M0 0 C2.31 0 4.62 0 7 0 C7.81882575 4.97742895 8.10824253 9.68782697 8.0625 14.75 C8.05347656 16.04421875 8.04445313 17.3384375 8.03515625 18.671875 C8.02355469 19.77015625 8.01195312 20.8684375 8 22 C7.87873219 25.20211302 7.87873219 25.20211302 9 29 C6.03 29 3.06 29 0 29 C0 19.43 0 9.86 0 0 Z " fill="#283E55" transform="translate(251,348)"/>
<path d="M0 0 C2 3 2 3 2 5 C2.66 5 3.32 5 4 5 C4 7.64 4 10.28 4 13 C4.33 13 4.66 13 5 13 C5 17.95 5 22.9 5 28 C4.01 28 3.02 28 2 28 C1.8453125 29.175625 1.8453125 29.175625 1.6875 30.375 C1 33 1 33 -2 35 C-2.1700084 31.35431461 -2.33538803 27.70843272 -2.5 24.0625 C-2.54769531 23.04091797 -2.59539062 22.01933594 -2.64453125 20.96679688 C-2.77820371 17.9782626 -2.89079397 14.98951517 -3 12 C-3.04511719 11.12327637 -3.09023438 10.24655273 -3.13671875 9.34326172 C-3.33933581 3.39138555 -3.33933581 3.39138555 -1.48632812 1.25415039 C-0.99583984 0.84028076 -0.50535156 0.42641113 0 0 Z " fill="#1F3850" transform="translate(304,219)"/>
<path d="M0 0 C3.36121157 1.68060579 4.10747388 5.4826729 5.5 8.8125 C6.11370304 10.25688476 6.72826131 11.7009065 7.34375 13.14453125 C7.62992188 13.82338379 7.91609375 14.50223633 8.2109375 15.20166016 C9.01678394 17.10397785 9.01678394 17.10397785 10.21875 19.26171875 C11 21 11 21 11 25 C8.03 25 5.06 25 2 25 C1.34 23.68 0.68 22.36 0 21 C-1.79133978 20.94608007 -3.58313899 20.90724429 -5.375 20.875 C-6.37273437 20.85179687 -7.37046875 20.82859375 -8.3984375 20.8046875 C-11.16262173 20.72783152 -11.16262173 20.72783152 -13 23 C-12.67 21.68 -12.34 20.36 -12 19 C-8.37 18.67 -4.74 18.34 -1 18 C-1 17.01 -1 16.02 -1 15 C-3.64 14.34 -6.28 13.68 -9 13 C-8.67 12.34 -8.34 11.68 -8 11 C-5.03 11.495 -5.03 11.495 -2 12 C-1.93941406 11.30132812 -1.87882813 10.60265625 -1.81640625 9.8828125 C-1.73261719 8.97273438 -1.64882812 8.06265625 -1.5625 7.125 C-1.48128906 6.22007812 -1.40007812 5.31515625 -1.31640625 4.3828125 C-1 2 -1 2 0 0 Z " fill="#52697D" transform="translate(170,352)"/>
<path d="M0 0 C1 1 1 1 1.125 3.9375 C1 7 1 7 0 9 C0.66 9.33 1.32 9.66 2 10 C1.34 10 0.68 10 0 10 C0.33 10.99 0.66 11.98 1 13 C0.0625 15.1875 0.0625 15.1875 -1 17 C-1.66 17 -2.32 17 -3 17 C-3.33 15.35 -3.66 13.7 -4 12 C-4.99 13.32 -5.98 14.64 -7 16 C-7 14.68 -7 13.36 -7 12 C-9.31 12.33 -11.62 12.66 -14 13 C-9.8441506 -0.79388311 -9.8441506 -0.79388311 0 0 Z " fill="#2A4158" transform="translate(169,347)"/>
<path d="M0 0 C1.72046505 2.2939534 3.4094295 4.61414424 5 7 C7.64691668 7.80092254 7.64691668 7.80092254 10.625 8.1875 C11.62789062 8.34605469 12.63078125 8.50460937 13.6640625 8.66796875 C14.43492187 8.77753906 15.20578125 8.88710938 16 9 C12.25 11 12.25 11 10 11 C10 11.66 10 12.32 10 13 C10.66 13 11.32 13 12 13 C12.33 14.65 12.66 16.3 13 18 C13.66 18 14.32 18 15 18 C15 18.66 15 19.32 15 20 C13.10489301 20.08160748 11.20875496 20.13946459 9.3125 20.1875 C7.72888672 20.23970703 7.72888672 20.23970703 6.11328125 20.29296875 C2.64577232 19.96666615 0.81567552 18.99030125 -2 17 C-1.34 16.67 -0.68 16.34 0 16 C0 10.72 0 5.44 0 0 Z " fill="#334A62" transform="translate(204,287)"/>
<path d="M0 0 C0.33 0.66 0.66 1.32 1 2 C0.0390625 4.03125 0.0390625 4.03125 -1.375 6.5 C-4.1572286 11.78700504 -4.74561072 16.06425018 -5 22 C-8.3 22 -11.6 22 -15 22 C-14.67 17.38 -14.34 12.76 -14 8 C-12.02 8.495 -12.02 8.495 -10 9 C-9.01 8.67 -8.02 8.34 -7 8 C-6.9071875 6.824375 -6.9071875 6.824375 -6.8125 5.625 C-6.544375 4.75875 -6.27625 3.8925 -6 3 C-3.5 1.75 -3.5 1.75 -1 1 C-0.67 0.67 -0.34 0.34 0 0 Z " fill="#283F59" transform="translate(368,355)"/>
<path d="M0 0 C0.99 1.485 0.99 1.485 2 3 C2.61875 2.814375 3.2375 2.62875 3.875 2.4375 C6 2 6 2 8 3 C8.33 2.34 8.66 1.68 9 1 C9.33 6.61 9.66 12.22 10 18 C8.35 18 6.7 18 5 18 C2.68622853 19.89584109 2.68622853 19.89584109 1 22 C0 21 0 21 -0.11352539 18.95874023 C-0.10828857 18.08419189 -0.10305176 17.20964355 -0.09765625 16.30859375 C-0.09443359 15.36435547 -0.09121094 14.42011719 -0.08789062 13.44726562 C-0.07951172 12.45404297 -0.07113281 11.46082031 -0.0625 10.4375 C-0.05798828 9.44041016 -0.05347656 8.44332031 -0.04882812 7.41601562 C-0.03700007 4.94395151 -0.02051849 2.47200482 0 0 Z " fill="#1E354B" transform="translate(189,251)"/>
<path d="M0 0 C1.54010742 0.03383789 1.54010742 0.03383789 3.11132812 0.06835938 C5.6382179 0.12712425 8.16210255 0.20922151 10.6875 0.3125 C10.6875 0.6425 10.6875 0.9725 10.6875 1.3125 C9.75683716 1.31866333 9.75683716 1.31866333 8.80737305 1.32495117 C5.99561336 1.3578511 3.18603145 1.42848648 0.375 1.5 C-0.60146484 1.50580078 -1.57792969 1.51160156 -2.58398438 1.51757812 C-8.14103369 1.51727096 -8.14103369 1.51727096 -12.48046875 4.55078125 C-13.55288827 7.6296866 -13.55288827 7.6296866 -13.3125 12.3125 C24.8025 12.8075 24.8025 12.8075 63.6875 13.3125 C64.0175 11.9925 64.3475 10.6725 64.6875 9.3125 C64.6875 10.9625 64.6875 12.6125 64.6875 14.3125 C37.6275 14.3125 10.5675 14.3125 -17.3125 14.3125 C-16.3125 5.3125 -16.3125 5.3125 -14.45703125 2.26953125 C-9.72704152 -0.67422633 -5.44763868 -0.22654927 0 0 Z " fill="#5E6F7C" transform="translate(226.3125,189.6875)"/>
<path d="M0 0 C1 2 1 2 0.5 4.875 C0.03580969 7.77618942 0.05922046 9.28219244 1 12 C1.66 12 2.32 12 3 12 C3.66 11.01 4.32 10.02 5 9 C5.10957031 9.63808594 5.21914062 10.27617187 5.33203125 10.93359375 C5.49058594 11.75988281 5.64914063 12.58617187 5.8125 13.4375 C5.96332031 14.26121094 6.11414063 15.08492188 6.26953125 15.93359375 C6.51058594 16.61550781 6.75164062 17.29742187 7 18 C7.99 18.33 8.98 18.66 10 19 C9.01 19 8.02 19 7 19 C6.84850702 22.62885324 6.84850702 22.62885324 8 26 C3.15175132 25.58443583 1.11963138 23.62551755 -2 20 C-3.76987805 17.0522376 -4.25202764 14.92583094 -4.1875 11.5 C-4.18105469 10.7471875 -4.17460938 9.994375 -4.16796875 9.21875 C-4.00303563 7.04009857 -3.59600906 5.09795189 -3 3 C-2.34 3 -1.68 3 -1 3 C-0.67 2.01 -0.34 1.02 0 0 Z " fill="#2F4661" transform="translate(124,351)"/>
<path d="M0 0 C2.91226879 1.4561344 3.31842064 3.49960664 4.625 6.4375 C5.07101562 7.42621094 5.51703125 8.41492188 5.9765625 9.43359375 C7 12 7 12 7 14 C6.360625 14.28875 5.72125 14.5775 5.0625 14.875 C2.84793921 15.82823451 2.84793921 15.82823451 2 18 C2.27942455 19.67654729 2.60828247 21.34608154 3 23 C2.34 23 1.68 23 1 23 C0.67 21.35 0.34 19.7 0 18 C-3.96 18 -7.92 18 -12 18 C-12 17.67 -12 17.34 -12 17 C-9.03 16.67 -6.06 16.34 -3 16 C-1.92474806 13.34771188 -0.90543849 10.71631546 0 8 C-0.37125 8.495 -0.7425 8.99 -1.125 9.5 C-3.74694393 11.59755514 -5.73842472 11.21743835 -9 11 C-9.20086443 7.28400809 -9.1519437 6.22791555 -7 3 C-4.875 2.3125 -4.875 2.3125 -3 2 C-2.67 3.65 -2.34 5.3 -2 7 C-1.01 7 -0.02 7 1 7 C1 6.01 1 5.02 1 4 C0.34 3.67 -0.32 3.34 -1 3 C-0.67 2.01 -0.34 1.02 0 0 Z M-7 5 C-6.67 5.99 -6.34 6.98 -6 8 C-6.99 8.495 -6.99 8.495 -8 9 C-6.68 9.33 -5.36 9.66 -4 10 C-4.33 8.35 -4.66 6.7 -5 5 C-5.66 5 -6.32 5 -7 5 Z " fill="#2C4660" transform="translate(310,354)"/>
<path d="M0 0 C2.46313739 1.82748903 3.83428618 3.22976216 4.48828125 6.26953125 C4.72518293 8.51479346 4.90361349 10.74455578 5 13 C3.71086513 13.67154933 2.41859796 14.33708859 1.125 15 C0.40570313 15.37125 -0.31359375 15.7425 -1.0546875 16.125 C-3 17 -3 17 -5 17 C-5 18.65 -5 20.3 -5 22 C-8.375 22.125 -8.375 22.125 -12 22 C-12.66 21.34 -13.32 20.68 -14 20 C-13.67 19.34 -13.34 18.68 -13 18 C-11.0625 17.4375 -11.0625 17.4375 -9 17 C-8.34 16.67 -7.68 16.34 -7 16 C-6.67 15.01 -6.34 14.02 -6 13 C-5.34 13 -4.68 13 -4 13 C-4 10.36 -4 7.72 -4 5 C-2.68 4.67 -1.36 4.34 0 4 C-0.33 3.34 -0.66 2.68 -1 2 C-0.67 1.34 -0.34 0.68 0 0 Z " fill="#1C3855" transform="translate(243,354)"/>
<path d="M0 0 C0.94552734 0.16242188 0.94552734 0.16242188 1.91015625 0.328125 C4.3667347 4.01299268 3.98646966 5.97826047 3.91015625 10.328125 C4.3387062 12.63849415 4.3387062 12.63849415 4.91015625 14.328125 C3.92015625 14.328125 2.93015625 14.328125 1.91015625 14.328125 C1.25015625 13.008125 0.59015625 11.688125 -0.08984375 10.328125 C-1.07984375 10.328125 -2.06984375 10.328125 -3.08984375 10.328125 C-3.08984375 10.988125 -3.08984375 11.648125 -3.08984375 12.328125 C-5.39984375 11.668125 -7.70984375 11.008125 -10.08984375 10.328125 C-9.61433814 8.84777736 -9.13433159 7.36887479 -8.65234375 5.890625 C-8.38550781 5.06691406 -8.11867188 4.24320312 -7.84375 3.39453125 C-6.35228201 -0.69348204 -4.0674985 0.1476406 0 0 Z " fill="#1D3754" transform="translate(306.08984375,346.671875)"/>
<path d="M0 0 C1 1 1 1 1.11352539 2.85766602 C1.10828857 3.64842529 1.10305176 4.43918457 1.09765625 5.25390625 C1.09443359 6.10791016 1.09121094 6.96191406 1.08789062 7.84179688 C1.07951172 8.73962891 1.07113281 9.63746094 1.0625 10.5625 C1.05798828 11.46419922 1.05347656 12.36589844 1.04882812 13.29492188 C1.03700225 15.53001314 1.0205222 17.76497437 1 20 C0.67 20 0.34 20 0 20 C-0.12375 19.030625 -0.2475 18.06125 -0.375 17.0625 C-0.58125 16.051875 -0.7875 15.04125 -1 14 C-1.66 13.67 -2.32 13.34 -3 13 C-3.33 12.34 -3.66 11.68 -4 11 C-6.33165034 10.66501699 -6.33165034 10.66501699 -9 11 C-11.31377147 12.89584109 -11.31377147 12.89584109 -13 15 C-13.66 14.67 -14.32 14.34 -15 14 C-14.67 13.01 -14.34 12.02 -14 11 C-13.34 11 -12.68 11 -12 11 C-11.896875 10.46375 -11.79375 9.9275 -11.6875 9.375 C-10.81180468 6.34987072 -9.52752839 3.7495511 -8 1 C-5.26752652 -0.36623674 -3.01801098 -0.128426 0 0 Z " fill="#3A5064" transform="translate(284,347)"/>
<path d="M0 0 C2.05078125 0.03255208 4.1015625 0.06510417 6.15234375 0.09765625 C5.62278372 3.91048848 4.79161566 6.26288272 2.15234375 9.09765625 C-0.50669409 10.7595549 -1.65132187 11.09765625 -4.84765625 11.09765625 C-5.17765625 12.74765625 -5.50765625 14.39765625 -5.84765625 16.09765625 C-6.50765625 16.09765625 -7.16765625 16.09765625 -7.84765625 16.09765625 C-8.17765625 16.75765625 -8.50765625 17.41765625 -8.84765625 18.09765625 C-9.83765625 17.10765625 -10.82765625 16.11765625 -11.84765625 15.09765625 C-11.01234375 14.13859375 -11.01234375 14.13859375 -10.16015625 13.16015625 C-7.70445811 9.90801546 -5.81589745 6.573872 -3.8984375 2.98828125 C-2.3053151 0.12184541 -2.3053151 0.12184541 0 0 Z " fill="#1E3853" transform="translate(366.84765625,346.90234375)"/>
<path d="M0 0 C0 0.99 0 1.98 0 3 C-0.66 3 -1.32 3 -2 3 C-2.33 3.99 -2.66 4.98 -3 6 C-3 5.34 -3 4.68 -3 4 C-3.99 4 -4.98 4 -6 4 C-5.67 4.99 -5.34 5.98 -5 7 C-2.69 7.33 -0.38 7.66 2 8 C1.67 6.35 1.34 4.7 1 3 C3.97 2.01 6.94 1.02 10 0 C10.33 0.66 10.66 1.32 11 2 C10.34 2 9.68 2 9 2 C8.7525 2.598125 8.505 3.19625 8.25 3.8125 C6.42553562 7.00531267 4.30053301 8.64510498 0.73828125 9.6171875 C-5.53841198 10.28427567 -10.2003935 9.47954191 -16 7 C-16.33 5.35 -16.66 3.7 -17 2 C-15.02 2.99 -13.04 3.98 -11 5 C-10.67 4.01 -10.34 3.02 -10 2 C-6.7 1.34 -3.4 0.68 0 0 Z " fill="#344C63" transform="translate(236,368)"/>
<path d="M0 0 C3 0 3 0 6 2 C5.34 2 4.68 2 4 2 C4 2.66 4 3.32 4 4 C4.66 4.33 5.32 4.66 6 5 C6.33 4.67 6.66 4.34 7 4 C7.33 4 7.66 4 8 4 C8.19466332 5.79090253 8.38051213 7.58276505 8.5625 9.375 C8.66691406 10.37273437 8.77132812 11.37046875 8.87890625 12.3984375 C9 15 9 15 8 17 C5.36 17 2.72 17 0 17 C0 11.39 0 5.78 0 0 Z " fill="#2D4357" transform="translate(184,360)"/>
<path d="M0 0 C1.65 0 3.3 0 5 0 C6.09658936 3.28976808 5.79953138 4.71303767 5 8 C6.98 8 8.96 8 11 8 C11.33 7.01 11.66 6.02 12 5 C12.66 5 13.32 5 14 5 C13.7834375 5.8353125 13.7834375 5.8353125 13.5625 6.6875 C12.97338812 9.10940438 12.48882408 11.55587958 12 14 C5.565 14.495 5.565 14.495 -1 15 C-1 13.35 -1 11.7 -1 10 C-0.01 9.67 0.98 9.34 2 9 C1.67 8.443125 1.34 7.88625 1 7.3125 C-0.1309601 4.69715478 -0.15662974 2.8193354 0 0 Z " fill="#1E3752" transform="translate(296,357)"/>
<path d="M0 0 C2.64 0 5.28 0 8 0 C8 0.33 8 0.66 8 1 C5.69 1 3.38 1 1 1 C1.02320313 2.00160156 1.04640625 3.00320313 1.0703125 4.03515625 C1.08908789 5.37759664 1.10728618 6.72004518 1.125 8.0625 C1.14820313 9.37347656 1.17140625 10.68445313 1.1953125 12.03515625 C1 16 1 16 -0.09375 19.75 C-1.01245614 23.0446703 -1.17779262 24.01108315 0.375 26.9375 C0.91125 27.948125 1.4475 28.95875 2 30 C1.34 30 0.68 30 0 30 C0 29.34 0 28.68 0 28 C-0.66 28 -1.32 28 -2 28 C-3.4375 26.3203125 -3.4375 26.3203125 -5 24.125 C-6.59356457 21.90197743 -8.06234725 19.93765275 -10 18 C-8.68 18 -7.36 18 -6 18 C-5.67 15.36 -5.34 12.72 -5 10 C-4.34 10.33 -3.68 10.66 -3 11 C-3 11.66 -3 12.32 -3 13 C-2.34 13 -1.68 13 -1 13 C-0.67 8.71 -0.34 4.42 0 0 Z " fill="#475C73" transform="translate(203,347)"/>
<path d="M0 0 C0.99 0.33 1.98 0.66 3 1 C2.67 2.98 2.34 4.96 2 7 C4.31 7 6.62 7 9 7 C9.66 8.65 10.32 10.3 11 12 C10 13 10 13 7.49609375 13.09765625 C5.98208984 13.08025391 5.98208984 13.08025391 4.4375 13.0625 C3.42558594 13.05347656 2.41367188 13.04445313 1.37109375 13.03515625 C0.19740234 13.01775391 0.19740234 13.01775391 -1 13 C-1.33 11.02 -1.66 9.04 -2 7 C-2.99 6.67 -3.98 6.34 -5 6 C-4.67 4.68 -4.34 3.36 -4 2 C-2.68 2 -1.36 2 0 2 C0 1.34 0 0.68 0 0 Z " fill="#1A344C" transform="translate(159,358)"/>
<path d="M0 0 C3.125 -0.625 3.125 -0.625 7 0 C10.22634487 3.80022834 13 7.93653859 13 13 C13.66 13 14.32 13 15 13 C14.67 13.66 14.34 14.32 14 15 C13.34 14.67 12.68 14.34 12 14 C12 13.34 12 12.68 12 12 C11.34 12 10.68 12 10 12 C9.95101563 12.89203125 9.90203125 13.7840625 9.8515625 14.703125 C9.77679688 15.87359375 9.70203125 17.0440625 9.625 18.25 C9.55539062 19.41015625 9.48578125 20.5703125 9.4140625 21.765625 C9.03751692 24.70694334 8.5225877 26.49949011 7 29 C6.34 27.02 5.68 25.04 5 23 C5.66 23 6.32 23 7 23 C6.9278125 21.99839844 6.855625 20.99679687 6.78125 19.96484375 C6.68737314 18.6224047 6.59363031 17.27995627 6.5 15.9375 C6.4071875 14.62652344 6.314375 13.31554687 6.21875 11.96484375 C6.0165098 8.29924005 5.9618196 4.67009048 6 1 C4.02 1 2.04 1 0 1 C0 0.67 0 0.34 0 0 Z " fill="#475A71" transform="translate(252,347)"/>
<path d="M0 0 C2.64 0 5.28 0 8 0 C8 0.66 8 1.32 8 2 C7.34 2 6.68 2 6 2 C6 2.99 6 3.98 6 5 C5.01 4.67 4.02 4.34 3 4 C0.35346742 4.44150449 0.35346742 4.44150449 -2 6 C-3.31685277 8.9502491 -3.31685277 8.9502491 -4 12 C-4.33 12.66 -4.66 13.32 -5 14 C-5.99 14 -6.98 14 -8 14 C-8 14.66 -8 15.32 -8 16 C-5.69 16 -3.38 16 -1 16 C-0.67 16.66 -0.34 17.32 0 18 C-3.63 18 -7.26 18 -11 18 C-9.14332089 13.57933544 -7.18740977 9.27065717 -5 5 C-4.34 5 -3.68 5 -3 5 C-3 4.34 -3 3.68 -3 3 C-2.01 3 -1.02 3 0 3 C0 2.01 0 1.02 0 0 Z " fill="#465A6F" transform="translate(212,310)"/>
<path d="M0 0 C4.29 0 8.58 0 13 0 C13 3 13 3 11.484375 4.67578125 C8.08936799 6.48538404 4.9910259 6.32540171 1.25 6.1875 C0.55261719 6.17396484 -0.14476562 6.16042969 -0.86328125 6.14648438 C-2.57585541 6.1112945 -4.28802941 6.05749155 -6 6 C-6.33 4.68 -6.66 3.36 -7 2 C-4 3 -4 3 -3 4 C-2.01 3.34 -1.02 2.68 0 2 C0 1.34 0 0.68 0 0 Z " fill="#1D3954" transform="translate(332,370)"/>
<path d="M0 0 C-2.57784846 2.64752004 -4.91648098 4.94432065 -8 7 C-7.01 7.33 -6.02 7.66 -5 8 C-4.875 10.875 -4.875 10.875 -5 14 C-5.66 14.66 -6.32 15.32 -7 16 C-7 14.68 -7 13.36 -7 12 C-9.31 12.33 -11.62 12.66 -14 13 C-9.88798434 -0.64839242 -9.88798434 -0.64839242 0 0 Z " fill="#354C63" transform="translate(169,347)"/>
<path d="M0 0 C5.40049736 0.31767632 7.52337065 3.19996327 11 7 C10.67 7.99 10.34 8.98 10 10 C9.34 9.01 8.68 8.02 8 7 C8 7.99 8 8.98 8 10 C7.01 10.495 7.01 10.495 6 11 C5.67 11.99 5.34 12.98 5 14 C5 13.01 5 12.02 5 11 C4.34 11 3.68 11 3 11 C3 13.64 3 16.28 3 19 C2.34 18.67 1.68 18.34 1 18 C0.97308315 15.54159395 0.95320198 13.08348118 0.9375 10.625 C0.92912109 9.92632812 0.92074219 9.22765625 0.91210938 8.5078125 C0.88671875 3.2265625 0.88671875 3.2265625 2 1 C1.34 0.67 0.68 0.34 0 0 Z " fill="#50637D" transform="translate(236,348)"/>
<path d="M0 0 C0 0.66 0 1.32 0 2 C1.32 2.66 2.64 3.32 4 4 C4 5.98 4 7.96 4 10 C1.03 10 -1.94 10 -5 10 C-5.33 7.69 -5.66 5.38 -6 3 C-2.25 0 -2.25 0 0 0 Z " fill="#1F3A55" transform="translate(177,367)"/>
<path d="M0 0 C3.3 0 6.6 0 10 0 C10.66 1.98 11.32 3.96 12 6 C11.2575 6.103125 10.515 6.20625 9.75 6.3125 C6.82985982 7.04253504 5.26812446 8.06789398 3 10 C2.67 8.68 2.34 7.36 2 6 C1.34 6 0.68 6 0 6 C0 4.02 0 2.04 0 0 Z " fill="#42576E" transform="translate(279,309)"/>
<path d="M0 0 C0.33 0 0.66 0 1 0 C1.66 3.63 2.32 7.26 3 11 C4.98 11 6.96 11 9 11 C7.02 11.99 7.02 11.99 5 13 C5 14.32 5 15.64 5 17 C4.38655243 18.68698082 3.72904086 20.35965807 3 22 C3.66 22 4.32 22 5 22 C5.33 22.99 5.66 23.98 6 25 C5.34 25 4.68 25 4 25 C4 24.34 4 23.68 4 23 C3.34 23 2.68 23 2 23 C2 22.34 2 21.68 2 21 C0.02 20.67 -1.96 20.34 -4 20 C-4 19.67 -4 19.34 -4 19 C-2.02 18.34 -0.04 17.68 2 17 C2 14.53721199 1.14547137 13.14775881 0 11 C-0.94875 11.04125 -1.8975 11.0825 -2.875 11.125 C-6 11 -6 11 -8 9 C-4.535 8.505 -4.535 8.505 -1 8 C-0.67 5.36 -0.34 2.72 0 0 Z " fill="#5D6E80" transform="translate(287,166)"/>
<path d="M0 0 C0.763125 0.20625 1.52625 0.4125 2.3125 0.625 C2.6425 1.945 2.9725 3.265 3.3125 4.625 C3.9725 4.625 4.6325 4.625 5.3125 4.625 C4.9825 5.945 4.6525 7.265 4.3125 8.625 C1.6725 8.625 -0.9675 8.625 -3.6875 8.625 C-4.3475 6.315 -5.0075 4.005 -5.6875 1.625 C-2.6875 -0.375 -2.6875 -0.375 0 0 Z " fill="#19334D" transform="translate(316.6875,368.375)"/>
<path d="M0 0 C0 0.66 0 1.32 0 2 C0.66 2 1.32 2 2 2 C2 4.31 2 6.62 2 9 C1.67 8.34 1.34 7.68 1 7 C-2.96 7 -6.92 7 -11 7 C-11 6.01 -11 5.02 -11 4 C-10.34 4 -9.68 4 -9 4 C-9 3.01 -9 2.02 -9 1 C-6.04335481 -0.4783226 -3.25770263 -0.06032783 0 0 Z " fill="#243C57" transform="translate(236,347)"/>
<path d="M0 0 C4.75 0.75 4.75 0.75 7 3 C7 4.32 7 5.64 7 7 C6.34 7 5.68 7 5 7 C5 7.66 5 8.32 5 9 C3.125 9.625 3.125 9.625 1 10 C0.34 9.34 -0.32 8.68 -1 8 C-3.68839385 7.73008094 -6.29141936 7.91262643 -9 8 C-9 7.34 -9 6.68 -9 6 C-5.37 5.01 -1.74 4.02 2 3 C2 2.34 2 1.68 2 1 C1.34 0.67 0.68 0.34 0 0 Z " fill="#647588" transform="translate(141,348)"/>
<path d="M0 0 C1.84765625 0.33984375 1.84765625 0.33984375 4.0625 0.9375 C5.16271484 1.22947266 5.16271484 1.22947266 6.28515625 1.52734375 C7.13400391 1.76130859 7.13400391 1.76130859 8 2 C7.40138258 4.35171131 6.73075648 6.6859378 6 9 C5.01 9.495 5.01 9.495 4 10 C3.67 10.99 3.34 11.98 3 13 C1.35 13 -0.3 13 -2 13 C-2.33 12.01 -2.66 11.02 -3 10 C-1.35 9.67 0.3 9.34 2 9 C2 8.01 2 7.02 2 6 C1.34 6 0.68 6 0 6 C0.33 5.01 0.66 4.02 1 3 C0.34 2.34 -0.32 1.68 -1 1 C-0.67 0.67 -0.34 0.34 0 0 Z " fill="#3D526A" transform="translate(268,362)"/>
<path d="M0 0 C1.98 0 3.96 0 6 0 C6.8125 2.1875 6.8125 2.1875 7 5 C4.47494414 8.08617938 2.80132605 9.73289132 -1 11 C-1.14285714 3.57142857 -1.14285714 3.57142857 0 0 Z " fill="#1C3550" transform="translate(217,356)"/>
<path d="M0 0 C2 1 2 1 2.8515625 3.06640625 C3.10679687 3.89011719 3.36203125 4.71382813 3.625 5.5625 C3.88539063 6.38878906 4.14578125 7.21507812 4.4140625 8.06640625 C4.60742188 8.70449219 4.80078125 9.34257812 5 10 C4.01 9.34 3.02 8.68 2 8 C-0.12816413 8.15688424 -0.12816413 8.15688424 -2 9 C-2.33 9.66 -2.66 10.32 -3 11 C-4.98 11 -6.96 11 -9 11 C-9.20086443 7.28400809 -9.1519437 6.22791555 -7 3 C-4.875 2.3125 -4.875 2.3125 -3 2 C-2.67 3.65 -2.34 5.3 -2 7 C-1.01 7 -0.02 7 1 7 C1 6.01 1 5.02 1 4 C0.34 3.67 -0.32 3.34 -1 3 C-0.67 2.01 -0.34 1.02 0 0 Z M-7 5 C-6.67 5.99 -6.34 6.98 -6 8 C-6.99 8.495 -6.99 8.495 -8 9 C-6.68 9.33 -5.36 9.66 -4 10 C-4.33 8.35 -4.66 6.7 -5 5 C-5.66 5 -6.32 5 -7 5 Z " fill="#506F83" transform="translate(310,354)"/>
<path d="M0 0 C0.99 0.99 1.98 1.98 3 3 C2.01017021 9.06270745 -0.24454988 11.62712604 -4.9296875 15.51953125 C-6.89020188 16.92148398 -8.81378038 17.99512327 -11 19 C-11 18.01 -11 17.02 -11 16 C-10.01 16 -9.02 16 -8 16 C-7.71125 15.4225 -7.4225 14.845 -7.125 14.25 C-6.08333333 12.16666667 -5.04166667 10.08333333 -4 8 C-3.67 7.29875 -3.34 6.5975 -3 5.875 C-2 4 -2 4 0 2 C0 1.34 0 0.68 0 0 Z " fill="#3B5168" transform="translate(327,181)"/>
<path d="M0 0 C3.03336186 -0.22893297 5.97465051 -0.36475845 9 0 C11.0625 2 11.0625 2 12 4 C11.67 4.66 11.34 5.32 11 6 C10.01 5.34 9.02 4.68 8 4 C7.34 5.65 6.68 7.3 6 9 C3 8 3 8 1.3125 5.0625 C0 2 0 2 0 0 Z " fill="#394C61" transform="translate(343,347)"/>
<path d="M0 0 C-3.61443405 1.82036042 -7.27307123 3.42322244 -11 5 C-11.33 4.01 -11.66 3.02 -12 2 C-20.91 2 -29.82 2 -39 2 C-39 1.67 -39 1.34 -39 1 C-34.75014501 0.82949792 -30.50009817 0.66431937 -26.25 0.5 C-25.06277344 0.45230469 -23.87554687 0.40460938 -22.65234375 0.35546875 C-15.09696582 0.06646522 -7.56073121 -0.06257157 0 0 Z " fill="#1C344C" transform="translate(277,298)"/>
<path d="M0 0 C0.99 0.33 1.98 0.66 3 1 C3 1.66 3 2.32 3 3 C3.66 3.33 4.32 3.66 5 4 C4.34 7.3 3.68 10.6 3 14 C2.67 13.34 2.34 12.68 2 12 C0.68 12 -0.64 12 -2 12 C-2.28571429 3.42857143 -2.28571429 3.42857143 0 0 Z " fill="#19324E" transform="translate(125,351)"/>
<path d="M0 0 C1.54010742 0.03383789 1.54010742 0.03383789 3.11132812 0.06835938 C5.6382179 0.12712425 8.16210255 0.20922151 10.6875 0.3125 C10.6875 0.6425 10.6875 0.9725 10.6875 1.3125 C9.75683716 1.31866333 9.75683716 1.31866333 8.80737305 1.32495117 C5.99561336 1.3578511 3.18603145 1.42848648 0.375 1.5 C-0.60146484 1.50580078 -1.57792969 1.51160156 -2.58398438 1.51757812 C-5.25042215 1.60004527 -7.7083603 1.73026315 -10.3125 2.3125 C-12.81803409 5.07221871 -13.25467018 6.44505272 -13.5 10.125 C-13.438125 10.846875 -13.37625 11.56875 -13.3125 12.3125 C-12.3225 12.6425 -11.3325 12.9725 -10.3125 13.3125 C-12.2925 13.3125 -14.2725 13.3125 -16.3125 13.3125 C-16.91322501 6.22394485 -16.91322501 6.22394485 -14.5 2.5625 C-9.78103006 -0.7685376 -5.62317278 -0.23384916 0 0 Z " fill="#455869" transform="translate(226.3125,189.6875)"/>
<path d="M0 0 C2.38564267 3.578464 2.68738574 6.6475265 3.125 10.8125 C3.25237549 11.97531494 3.25237549 11.97531494 3.38232422 13.16162109 C4.35534925 23.08569334 4.18229124 33.04128956 4 43 C3.67 43 3.34 43 3 43 C3 36.07 3 29.14 3 22 C2.34 22 1.68 22 1 22 C-0.06353887 17.08113272 -0.04681531 12.39180061 0.0625 7.390625 C0.16850766 4.9839444 0.16850766 4.9839444 -1 3 C-0.67 2.01 -0.34 1.02 0 0 Z " fill="#8792A0" transform="translate(308,228)"/>
<path d="M0 0 C0.66 0.66 1.32 1.32 2 2 C1.34 2 0.68 2 0 2 C-0.2475 2.598125 -0.495 3.19625 -0.75 3.8125 C-2.22332483 6.39081845 -3.48644316 7.42902697 -6 9 C-8.578125 9.51171875 -8.578125 9.51171875 -11.25 9.6875 C-12.14203125 9.75324219 -13.0340625 9.81898438 -13.953125 9.88671875 C-14.62859375 9.92410156 -15.3040625 9.96148437 -16 10 C-15.34 9.01 -14.68 8.02 -14 7 C-11.69 7.33 -9.38 7.66 -7 8 C-7.33 6.35 -7.66 4.7 -8 3 C-5.36 2.01 -2.72 1.02 0 0 Z " fill="#42586F" transform="translate(245,368)"/>
<path d="M0 0 C3 0 3 0 6 2 C5.01 2.33 4.02 2.66 3 3 C2.67 5.64 2.34 8.28 2 11 C2.99 10.34 3.98 9.68 5 9 C5.33 11.31 5.66 13.62 6 16 C4.33388095 16.042721 2.66617115 16.04063832 1 16 C0 15 0 15 -0.09765625 11.62109375 C-0.09098369 10.22652923 -0.07902532 8.83198257 -0.0625 7.4375 C-0.05798828 6.72658203 -0.05347656 6.01566406 -0.04882812 5.28320312 C-0.03700864 3.52209987 -0.01907263 1.76103964 0 0 Z " fill="#213950" transform="translate(184,360)"/>
<path d="M0 0 C0.66 0 1.32 0 2 0 C2.96070434 2.88211302 3.10581883 4.69850044 3.0625 7.6875 C3.05347656 8.49574219 3.04445313 9.30398437 3.03515625 10.13671875 C3.02355469 10.75160156 3.01195312 11.36648437 3 12 C1.35 11.67 -0.3 11.34 -2 11 C-2 9.35 -2 7.7 -2 6 C-2.66 6 -3.32 6 -4 6 C-3 4 -3 4 -1 3 C-0.67 2.01 -0.34 1.02 0 0 Z " fill="#1E364D" transform="translate(284,163)"/>
<path d="M0 0 C0.33 0 0.66 0 1 0 C1 2.31 1 4.62 1 7 C0.34 7 -0.32 7 -1 7 C-0.938125 8.1446875 -0.938125 8.1446875 -0.875 9.3125 C-1.06183765 13.32950944 -3.22185908 15.34813821 -6 18 C-6.33 17.01 -6.66 16.02 -7 15 C-6.67 14.34 -6.34 13.68 -6 13 C-5.9603287 11.33380554 -5.95615553 9.66608987 -6 8 C-5.34 8 -4.68 8 -4 8 C-1.73603877 5.46436342 -0.59687434 3.34249629 0 0 Z " fill="#1E354A" transform="translate(202,197)"/>
<path d="M0 0 C0.99 0 1.98 0 3 0 C2.67 1.65 2.34 3.3 2 5 C3.65 5 5.3 5 7 5 C7.33 6.98 7.66 8.96 8 11 C6.02 11 4.04 11 2 11 C-0.32590854 7.36576791 -0.16265833 4.22911669 0 0 Z " fill="#1B324D" transform="translate(355,366)"/>
<path d="M0 0 C6.6 0 13.2 0 20 0 C19.34 1.65 18.68 3.3 18 5 C15.36 4.34 12.72 3.68 10 3 C10 2.67 10 2.34 10 2 C6.7 1.67 3.4 1.34 0 1 C0 0.67 0 0.34 0 0 Z " fill="#40556C" transform="translate(266,297)"/>
<path d="M0 0 C0.99 0.66 1.98 1.32 3 2 C3 3.32 3 4.64 3 6 C2 7 1 8 0 9 C-0.72197162 11.60611077 -0.72197162 11.60611077 -1 14 C-1.99 13.67 -2.98 13.34 -4 13 C-4 10.36 -4 7.72 -4 5 C-2.68 4.67 -1.36 4.34 0 4 C-0.33 3.34 -0.66 2.68 -1 2 C-0.67 1.34 -0.34 0.68 0 0 Z " fill="#1D334C" transform="translate(243,354)"/>
<path d="M0 0 C1.02507622 2.05015243 2.04702038 4.10285708 3 6.1875 C3.87144569 8.17201523 3.87144569 8.17201523 6 9 C6 10.65 6 12.3 6 14 C4.68 14.33 3.36 14.66 2 15 C2 13.68 2 12.36 2 11 C0.68 10.34 -0.64 9.68 -2 9 C-1.34 6.03 -0.68 3.06 0 0 Z " fill="#1D344D" transform="translate(300,273)"/>
<path d="M0 0 C0.66 0 1.32 0 2 0 C4.32590854 3.63423209 4.16265833 6.77088331 4 11 C1.69 11 -0.62 11 -3 11 C-2.484375 10.62875 -1.96875 10.2575 -1.4375 9.875 C0.36073264 7.9827574 0.36073264 7.9827574 -0.375 4.9375 C-0.58125 3.968125 -0.7875 2.99875 -1 2 C-0.67 1.34 -0.34 0.68 0 0 Z " fill="#2E475C" transform="translate(286,192)"/>
<path d="M0 0 C0.33 0.66 0.66 1.32 1 2 C1.99 2.33 2.98 2.66 4 3 C3.01 3 2.02 3 1 3 C0.84850702 6.62885324 0.84850702 6.62885324 2 10 C-2.83256305 9.58578031 -4.82679218 7.53586014 -8 4 C-7.34 3.67 -6.68 3.34 -6 3 C-6 3.66 -6 4.32 -6 5 C-3.50447516 4.21869929 -3.50447516 4.21869929 -1 3 C-0.67 2.01 -0.34 1.02 0 0 Z " fill="#53677D" transform="translate(130,367)"/>
<path d="M0 0 C1.65 0 3.3 0 5 0 C4.34 2.31 3.68 4.62 3 7 C0.125 7.125 0.125 7.125 -3 7 C-3.66 6.34 -4.32 5.68 -5 5 C-4.34 5 -3.68 5 -3 5 C-2.67 4.01 -2.34 3.02 -2 2 C-1.34 2 -0.68 2 0 2 C0 1.34 0 0.68 0 0 Z " fill="#203853" transform="translate(274,357)"/>
<path d="M0 0 C0 2.64 0 5.28 0 8 C-0.66 7.34 -1.32 6.68 -2 6 C-2.66 6.66 -3.32 7.32 -4 8 C-6 6 -6 6 -7 3 C-7.99 2.67 -8.98 2.34 -10 2 C-6.38026598 0.68373308 -3.90432869 0 0 0 Z " fill="#4C5F72" transform="translate(295,260)"/>
<path d="M0 0 C1.43396751 2.86793501 0.55024337 4.88195423 0 8 C0.061875 8.886875 0.12375 9.77375 0.1875 10.6875 C0 13 0 13 -2 14.8125 C-2.66 15.204375 -3.32 15.59625 -4 16 C-4.0272415 14.58344207 -4.04650467 13.16672955 -4.0625 11.75 C-4.07410156 10.96109375 -4.08570312 10.1721875 -4.09765625 9.359375 C-4.00385306 7.09308998 -3.63241063 5.1711105 -3 3 C-2.34 3 -1.68 3 -1 3 C-0.67 2.01 -0.34 1.02 0 0 Z " fill="#45556C" transform="translate(124,351)"/>
<path d="M0 0 C0.66 0 1.32 0 2 0 C1.67 2.64 1.34 5.28 1 8 C-1.64 8 -4.28 8 -7 8 C-6.01 7.67 -5.02 7.34 -4 7 C-4.185625 6.38125 -4.37125 5.7625 -4.5625 5.125 C-5 3 -5 3 -4 1 C-3.01 1.33 -2.02 1.66 -1 2 C-0.67 1.34 -0.34 0.68 0 0 Z " fill="#30455C" transform="translate(284,369)"/>
<path d="M0 0 C0.33 1.32 0.66 2.64 1 4 C1.99 4 2.98 4 4 4 C4.79953138 7.28696233 5.09658936 8.71023192 4 12 C3.34 12 2.68 12 2 12 C2 10.35 2 8.7 2 7 C1.01 8.485 1.01 8.485 0 10 C-0.66 10 -1.32 10 -2 10 C-2 10.66 -2 11.32 -2 12 C-2.66 11.67 -3.32 11.34 -4 11 C-2.68 7.37 -1.36 3.74 0 0 Z " fill="#3D5368" transform="translate(154,360)"/>
<path d="M0 0 C0.125 2.875 0.125 2.875 0 6 C-0.66 6.66 -1.32 7.32 -2 8 C-2 6.68 -2 5.36 -2 4 C-4.31 4.33 -6.62 4.66 -9 5 C-8.625 3.0625 -8.625 3.0625 -8 1 C-5.29120665 -0.35439668 -2.99066732 -0.06501451 0 0 Z " fill="#41586B" transform="translate(164,355)"/>
<path d="M0 0 C0.33 0 0.66 0 1 0 C0.50130596 5.36891879 -0.02227532 10.69235173 -1 16 C-2.85776765 12.86501708 -3.20140476 10.62528568 -3 7 C-2.34 7 -1.68 7 -1 7 C-1.020625 6.030625 -1.04125 5.06125 -1.0625 4.0625 C-1 1 -1 1 0 0 Z M-5 10 C-4.34 10.66 -3.68 11.32 -3 12 C-3.25 14.0625 -3.25 14.0625 -4 16 C-4.99 16.495 -4.99 16.495 -6 17 C-5.67 14.69 -5.34 12.38 -5 10 Z " fill="#4E6271" transform="translate(204,197)"/>
<path d="M0 0 C5.61 0 11.22 0 17 0 C17 0.33 17 0.66 17 1 C12.71 1 8.42 1 4 1 C4.33 1.99 4.66 2.98 5 4 C3.35 4.66 1.7 5.32 0 6 C0 5.34 0 4.68 0 4 C-0.66 4 -1.32 4 -2 4 C-1.34 2.68 -0.68 1.36 0 0 Z " fill="#5D7189" transform="translate(328,369)"/>
<path d="M0 0 C0.91058531 3.07322544 1.08886184 5.80097361 1 9 C-0.8125 9.625 -0.8125 9.625 -3 10 C-3.99 9.34 -4.98 8.68 -6 8 C-6 7.34 -6 6.68 -6 6 C-5.34 6 -4.68 6 -4 6 C-4 5.34 -4 4.68 -4 4 C-2.70766393 2.62689293 -1.37562854 1.28965176 0 0 Z " fill="#183451" transform="translate(156,366)"/>
<path d="M0 0 C0.66 0 1.32 0 2 0 C2 0.99 2 1.98 2 3 C2.66 3 3.32 3 4 3 C4 5.97 4 8.94 4 12 C4.66 12 5.32 12 6 12 C6 12.66 6 13.32 6 14 C5.34 14 4.68 14 4 14 C4 15.98 4 17.96 4 20 C3.67 20 3.34 20 3 20 C2.01 13.4 1.02 6.8 0 0 Z " fill="#63717E" transform="translate(294,193)"/>
<path d="M0 0 C0.99 0.33 1.98 0.66 3 1 C3 1.66 3 2.32 3 3 C3.66 3.33 4.32 3.66 5 4 C4.67 4.33 4.34 4.66 4 5 C4.28604898 6.67542976 4.61781233 8.34385343 5 10 C4.34 10 3.68 10 3 10 C2.67 8.35 2.34 6.7 2 5 C-1.96 5 -5.92 5 -10 5 C-10 4.67 -10 4.34 -10 4 C-5.545 3.505 -5.545 3.505 -1 3 C-0.67 2.01 -0.34 1.02 0 0 Z " fill="#6D7F92" transform="translate(308,367)"/>
<path d="M0 0 C2.64 0 5.28 0 8 0 C8 0.66 8 1.32 8 2 C7.34 2 6.68 2 6 2 C6 2.99 6 3.98 6 5 C5.01 4.67 4.02 4.34 3 4 C0.3430809 4.87914688 0.3430809 4.87914688 -2 6 C-2 5.01 -2 4.02 -2 3 C-1.34 3 -0.68 3 0 3 C0 2.01 0 1.02 0 0 Z " fill="#1D344D" transform="translate(212,310)"/>
<path d="M0 0 C1.32 0 2.64 0 4 0 C4.66 0.66 5.32 1.32 6 2 C6.66 2.33 7.32 2.66 8 3 C8 3.66 8 4.32 8 5 C4.37 5 0.74 5 -3 5 C-3 4.34 -3 3.68 -3 3 C-2.34 3 -1.68 3 -1 3 C-0.67 2.01 -0.34 1.02 0 0 Z " fill="#3F5467" transform="translate(222,274)"/>
<path d="M0 0 C1.41623216 -0.05447047 2.83308191 -0.09300508 4.25 -0.125 C5.03890625 -0.14820313 5.8278125 -0.17140625 6.640625 -0.1953125 C9.20731941 0.0171622 10.7916067 0.71345895 13 2 C12 3 12 3 9.05859375 3.09765625 C7.26615234 3.08025391 7.26615234 3.08025391 5.4375 3.0625 C3.64119141 3.04896484 3.64119141 3.04896484 1.80859375 3.03515625 C0.88175781 3.02355469 -0.04507813 3.01195312 -1 3 C-0.67 2.01 -0.34 1.02 0 0 Z " fill="#223548" transform="translate(231,258)"/>
<path d="M0 0 C1.27875 -0.061875 2.5575 -0.12375 3.875 -0.1875 C4.95394531 -0.23970703 4.95394531 -0.23970703 6.0546875 -0.29296875 C6.69664062 -0.19628906 7.33859375 -0.09960938 8 0 C10 3 10 3 9.625 5.1875 C9.41875 5.785625 9.2125 6.38375 9 7 C8.34 5.68 7.68 4.36 7 3 C3.97580475 3.58803797 0.98241547 4.22678118 -2 5 C-1.34 3.35 -0.68 1.7 0 0 Z " fill="#616F7F" transform="translate(300,347)"/>
<path d="M0 0 C4.29 0 8.58 0 13 0 C13 0.99 13 1.98 13 3 C9.04 3 5.08 3 1 3 C0.67 2.01 0.34 1.02 0 0 Z M-1 3 C1 4 1 4 1 4 Z " fill="#20354A" transform="translate(332,370)"/>
<path d="M0 0 C2.29013653 3.4352048 2.17842973 4.985331 2 9 C0.33333333 9 -1.33333333 9 -3 9 C-3.625 7.1875 -3.625 7.1875 -4 5 C-3.34 4.01 -2.68 3.02 -2 2 C-1.34 2 -0.68 2 0 2 C0 1.34 0 0.68 0 0 Z " fill="#385065" transform="translate(246,358)"/>
<path d="M0 0 C2.20914 3.31371 2.22481553 4.3446021 2.125 8.1875 C2.10695313 9.08855469 2.08890625 9.98960937 2.0703125 10.91796875 C2.03550781 11.94857422 2.03550781 11.94857422 2 13 C0.68 12.67 -0.64 12.34 -2 12 C-2.26252625 7.66831683 -1.29243536 4.1196377 0 0 Z " fill="#1E364A" transform="translate(292,223)"/>
<path d="M0 0 C4.21422242 2.88341534 5.76075855 5.04303419 7 10 C5.35 9.67 3.7 9.34 2 9 C2.66 8.67 3.32 8.34 4 8 C1.525 7.01 1.525 7.01 -1 6 C-0.67 4.02 -0.34 2.04 0 0 Z " fill="#405466" transform="translate(274,134)"/>
<path d="M0 0 C0.66 0 1.32 0 2 0 C2 0.66 2 1.32 2 2 C2.99 2.33 3.98 2.66 5 3 C5 3.99 5 4.98 5 6 C3.125 7.0625 3.125 7.0625 1 8 C0.34 7.67 -0.32 7.34 -1 7 C-0.67 4.69 -0.34 2.38 0 0 Z " fill="#1F3450" transform="translate(262,359)"/>
<path d="M0 0 C4.22797927 3.08290155 4.22797927 3.08290155 6 5 C6.375 7.8125 6.375 7.8125 6 10 C4.85073734 9.04578192 3.70569459 8.08647955 2.5625 7.125 C1.92441406 6.59132813 1.28632813 6.05765625 0.62890625 5.5078125 C-1 4 -1 4 -2 2 C-1.34 2 -0.68 2 0 2 C0 1.34 0 0.68 0 0 Z " fill="#52657E" transform="translate(196,293)"/>
<path d="M0 0 C0.33 0 0.66 0 1 0 C1.33 4.62 1.66 9.24 2 14 C1.67 13.01 1.34 12.02 1 11 C0.01 10.67 -0.98 10.34 -2 10 C-2.875 8.3125 -2.875 8.3125 -3 6 C-1.5625 2.75 -1.5625 2.75 0 0 Z " fill="#41576A" transform="translate(292,212)"/>
<path d="M0 0 C6.80203375 -0.37634203 11.75690073 0.22528921 18 3 C17.34 3.66 16.68 4.32 16 5 C13.38419521 4.6730244 11.35921863 4.17960932 9 3 C9 2.34 9 1.68 9 1 C6.03 1 3.06 1 0 1 C0 0.67 0 0.34 0 0 Z " fill="#506271" transform="translate(309,177)"/>
<path d="M0 0 C2 1 2 1 3 3 C2.34 3 1.68 3 1 3 C1 4.32 1 5.64 1 7 C3.31 7.33 5.62 7.66 8 8 C8 8.33 8 8.66 8 9 C4.37 9.33 0.74 9.66 -3 10 C-3 8.68 -3 7.36 -3 6 C-2.01 6 -1.02 6 0 6 C0 4.02 0 2.04 0 0 Z " fill="#657986" transform="translate(218,167)"/>
<path d="M0 0 C1.65 0 3.3 0 5 0 C6 3 6 3 5 6 C3.35 6.33 1.7 6.66 0 7 C0 4.69 0 2.38 0 0 Z " fill="#172F4E" transform="translate(296,357)"/>
<path d="M0 0 C2.64 0 5.28 0 8 0 C7.625 2.4375 7.625 2.4375 7 5 C6.01 5.495 6.01 5.495 5 6 C5 5.01 5 4.02 5 3 C2.03 2.505 2.03 2.505 -1 2 C-0.67 1.34 -0.34 0.68 0 0 Z " fill="#5C6D7C" transform="translate(365,347)"/>
<path d="M0 0 C3.04386724 -0.08226668 5.07175348 0.02391783 8 1 C8.33 1.99 8.66 2.98 9 4 C5.37 4 1.74 4 -2 4 C-1.34 2.68 -0.68 1.36 0 0 Z " fill="#1F3754" transform="translate(290,324)"/>
<path d="M0 0 C2.64 0 5.28 0 8 0 C6.515 2.475 6.515 2.475 5 5 C3.35 4.67 1.7 4.34 0 4 C0 2.68 0 1.36 0 0 Z " fill="#1C334C" transform="translate(280,310)"/>
<path d="M0 0 C1.2380014 3.57644848 0.74926071 6.33694766 0 10 C-0.66 10 -1.32 10 -2 10 C-2 8.35 -2 6.7 -2 5 C-2.99 4.67 -3.98 4.34 -5 4 C-3 2 -3 2 0 0 Z " fill="#193752" transform="translate(204,293)"/>
<path d="M0 0 C0.66 0.33 1.32 0.66 2 1 C1.67 2.65 1.34 4.3 1 6 C-0.65 6 -2.3 6 -4 6 C-4.33 4.68 -4.66 3.36 -5 2 C-4.01 2 -3.02 2 -2 2 C-1.34 1.34 -0.68 0.68 0 0 Z " fill="#1D354D" transform="translate(177,370)"/>
<path d="M0 0 C1.32 0.33 2.64 0.66 4 1 C4 3.31 4 5.62 4 8 C3.67 7.34 3.34 6.68 3 6 C1.02 6 -0.96 6 -3 6 C-2.34 5.67 -1.68 5.34 -1 5 C-0.34444881 2.47266765 -0.34444881 2.47266765 0 0 Z " fill="#1D324B" transform="translate(234,348)"/>
<path d="M0 0 C0.33 0.66 0.66 1.32 1 2 C3.02463255 2.65213292 3.02463255 2.65213292 5 3 C5 3.99 5 4.98 5 6 C2.69 5.67 0.38 5.34 -2 5 C-2.33 4.01 -2.66 3.02 -3 2 C-3.66 1.67 -4.32 1.34 -5 1 C-2.525 1.495 -2.525 1.495 0 2 C0 1.34 0 0.68 0 0 Z " fill="#1F384E" transform="translate(247,136)"/>
<path d="M0 0 C3.03336186 -0.22893297 5.97465051 -0.36475845 9 0 C11.0625 2 11.0625 2 12 4 C11.67 4.66 11.34 5.32 11 6 C9.68 5.34 8.36 4.68 7 4 C7 3.34 7 2.68 7 2 C4.69 1.67 2.38 1.34 0 1 C0 0.67 0 0.34 0 0 Z " fill="#6B7E8C" transform="translate(343,347)"/>
<path d="M0 0 C0.33 0 0.66 0 1 0 C0.938125 0.78375 0.87625 1.5675 0.8125 2.375 C0.9053125 3.674375 0.9053125 3.674375 1 5 C1.99 5.66 2.98 6.32 4 7 C4 7.66 4 8.32 4 9 C1.5 10.625 1.5 10.625 -1 12 C-1.14285714 3.42857143 -1.14285714 3.42857143 0 0 Z " fill="#455A70" transform="translate(298,277)"/>
<path d="M0 0 C0.33 0.66 0.66 1.32 1 2 C3.32156597 2.40729228 5.6568787 2.74438677 8 3 C8 3.66 8 4.32 8 5 C6.5629191 5.05422947 5.12524538 5.09289723 3.6875 5.125 C2.88699219 5.14820313 2.08648437 5.17140625 1.26171875 5.1953125 C-1 5 -1 5 -4 3 C-3.01 2.67 -2.02 2.34 -1 2 C-0.67 1.34 -0.34 0.68 0 0 Z " fill="#354457" transform="translate(149,372)"/>
<path d="M0 0 C0.66 0.66 1.32 1.32 2 2 C1.34 2 0.68 2 0 2 C-0.268125 2.639375 -0.53625 3.27875 -0.8125 3.9375 C-2 6 -2 6 -5 7 C-5.33 5.68 -5.66 4.36 -6 3 C-4.02 2.01 -2.04 1.02 0 0 Z " fill="#576B7E" transform="translate(245,368)"/>
<path d="M0 0 C1.32 0.66 2.64 1.32 4 2 C2.62308038 4.75383923 0.63279958 5.51483101 -2 7 C-2.33 6.34 -2.66 5.68 -3 5 C-2.18789963 3.08576342 -1.47927983 1.47927983 0 0 Z " fill="#26405C" transform="translate(351,351)"/>
<path d="M0 0 C0.66 0.33 1.32 0.66 2 1 C1.67 2.32 1.34 3.64 1 5 C-2.3 5 -5.6 5 -9 5 C-8.67 3.68 -8.34 2.36 -8 1 C-7.34 1 -6.68 1 -6 1 C-6 1.99 -6 2.98 -6 4 C-4.35 4 -2.7 4 -1 4 C-0.67 2.68 -0.34 1.36 0 0 Z " fill="#495A6A" transform="translate(296,372)"/>
<path d="M0 0 C2 1 2 1 2.8515625 3.06640625 C3.10679687 3.89011719 3.36203125 4.71382813 3.625 5.5625 C3.88539063 6.38878906 4.14578125 7.21507812 4.4140625 8.06640625 C4.60742188 8.70449219 4.80078125 9.34257812 5 10 C4.01 9.34 3.02 8.68 2 8 C-0.11280345 7.36707617 -0.11280345 7.36707617 -2 7 C-1.01 7 -0.02 7 1 7 C1 6.01 1 5.02 1 4 C0.34 3.67 -0.32 3.34 -1 3 C-0.67 2.01 -0.34 1.02 0 0 Z " fill="#506579" transform="translate(310,354)"/>
<path d="M0 0 C0.66 0.33 1.32 0.66 2 1 C1.34 2.65 0.68 4.3 0 6 C0.66 6 1.32 6 2 6 C2.33 6.99 2.66 7.98 3 9 C2.34 9 1.68 9 1 9 C1 8.34 1 7.68 1 7 C0.34 7 -0.32 7 -1 7 C-1 6.34 -1 5.68 -1 5 C-3.97 4.505 -3.97 4.505 -7 4 C-7 3.67 -7 3.34 -7 3 C-5.5459375 2.5359375 -5.5459375 2.5359375 -4.0625 2.0625 C-1.15934208 1.30476658 -1.15934208 1.30476658 0 0 Z " fill="#566A7A" transform="translate(290,182)"/>
<path d="M0 0 C0.99 0.66 1.98 1.32 3 2 C3.1875 5.125 3.1875 5.125 3 8 C0.03 8 -2.94 8 -6 8 C-5.67 7.34 -5.34 6.68 -5 6 C-3.35 6 -1.7 6 0 6 C0 4.02 0 2.04 0 0 Z " fill="#535E6D" transform="translate(178,369)"/>
<path d="M0 0 C-0.33 2.97 -0.66 5.94 -1 9 C-3 7.1875 -3 7.1875 -5 5 C-5 4.01 -5 3.02 -5 2 C-2 0 -2 0 0 0 Z " fill="#4F657A" transform="translate(221,365)"/>
<path d="M0 0 C0.33 0 0.66 0 1 0 C1 1.65 1 3.3 1 5 C0.01 5 -0.98 5 -2 5 C-1.67 5.99 -1.34 6.98 -1 8 C-1.99 8.99 -2.98 9.98 -4 11 C-4.66 10.67 -5.32 10.34 -6 10 C-5.67 9.01 -5.34 8.02 -5 7 C-4.34 7 -3.68 7 -3 7 C-2.87625 6.401875 -2.7525 5.80375 -2.625 5.1875 C-2 3 -2 3 0 0 Z " fill="#5D6D7E" transform="translate(275,351)"/>
<path d="M0 0 C3.3 0 6.6 0 10 0 C10.33 1.32 10.66 2.64 11 4 C10.01 4 9.02 4 8 4 C8 3.34 8 2.68 8 2 C5.69 1.67 3.38 1.34 1 1 C1.33 2.65 1.66 4.3 2 6 C1.34 6 0.68 6 0 6 C0 4.02 0 2.04 0 0 Z " fill="#577283" transform="translate(279,309)"/>
<path d="M0 0 C0.99 0.33 1.98 0.66 3 1 C-1.455 4.465 -1.455 4.465 -6 8 C-6.33 7.01 -6.66 6.02 -7 5 C-6.01 5 -5.02 5 -4 5 C-3.71125 4.360625 -3.4225 3.72125 -3.125 3.0625 C-2 1 -2 1 0 0 Z " fill="#617382" transform="translate(323,192)"/>
<path d="M0 0 C0.99 0.33 1.98 0.66 3 1 C3.33 2.65 3.66 4.3 4 6 C2.125 6.625 2.125 6.625 0 7 C-0.66 6.34 -1.32 5.68 -2 5 C-1.34 4.01 -0.68 3.02 0 2 C0 1.34 0 0.68 0 0 Z " fill="#183452" transform="translate(142,368)"/>
<path d="M0 0 C2.86724686 0.57344937 3.8614515 0.8614515 6 3 C5.625 5.625 5.625 5.625 5 8 C3.68 8.33 2.36 8.66 1 9 C1 8.34 1 7.68 1 7 C1.99 7 2.98 7 4 7 C2.92598892 4.08482708 2.22189824 2.22189824 0 0 Z " fill="#5E7487" transform="translate(142,367)"/>
<path d="M0 0 C3 1 3 1 5 4 C3.125 5.0625 3.125 5.0625 1 6 C0.34 5.67 -0.32 5.34 -1 5 C-0.67 3.35 -0.34 1.7 0 0 Z " fill="#354D62" transform="translate(297,352)"/>
<path d="M0 0 C0.33 0 0.66 0 1 0 C1.08078641 2.12438339 1.13909141 4.2496323 1.1875 6.375 C1.22230469 7.55835938 1.25710937 8.74171875 1.29296875 9.9609375 C1.19628906 10.96382812 1.09960938 11.96671875 1 13 C0.01 13.66 -0.98 14.32 -2 15 C-1.03644647 4.44191344 -1.03644647 4.44191344 0 0 Z " fill="#717E89" transform="translate(214,157)"/>
<path d="M0 0 C0.33 0 0.66 0 1 0 C1 2.31 1 4.62 1 7 C-0.98 7 -2.96 7 -5 7 C-3.625 5 -3.625 5 -2 3 C-1.34 3 -0.68 3 0 3 C0 2.01 0 1.02 0 0 Z " fill="#5D6F7E" transform="translate(345,370)"/>
<path d="M0 0 C0.66 0 1.32 0 2 0 C2 2.64 2 5.28 2 8 C0.68 8.33 -0.64 8.66 -2 9 C-1.51421457 5.87709365 -1.0013988 3.00419641 0 0 Z " fill="#1B334C" transform="translate(307,283)"/>
<path d="M0 0 C0.99 0 1.98 0 3 0 C3 0.66 3 1.32 3 2 C4.65 1.34 6.3 0.68 8 0 C8 1.32 8 2.64 8 4 C5.69 3.67 3.38 3.34 1 3 C0.67 2.01 0.34 1.02 0 0 Z " fill="#1B354E" transform="translate(209,273)"/>
<path d="M0 0 C0.33 0.99 0.66 1.98 1 3 C0.38125 3.5775 -0.2375 4.155 -0.875 4.75 C-2.81347053 6.80249821 -3.90014249 8.43366582 -5 11 C-5.36541918 6.73677629 -4.49759276 4.45820536 -2 1 C-1.34 0.67 -0.68 0.34 0 0 Z " fill="#5E6F7F" transform="translate(277,265)"/>
<path d="M0 0 C2.97 0.33 5.94 0.66 9 1 C8.67 2.32 8.34 3.64 8 5 C4.35446828 3.7191375 2.83328987 2.83328987 0 0 Z " fill="#4E5E6F" transform="translate(176,194)"/>
<path d="M0 0 C0.33 0.66 0.66 1.32 1 2 C1.66 2.33 2.32 2.66 3 3 C3 3.99 3 4.98 3 6 C2.01 6 1.02 6 0 6 C-0.33 6.66 -0.66 7.32 -1 8 C-1.625 5.6875 -1.625 5.6875 -2 3 C-1.34 2.01 -0.68 1.02 0 0 Z " fill="#536476" transform="translate(172,181)"/>
<path d="M0 0 C1.5 1.375 1.5 1.375 3 3 C3 3.66 3 4.32 3 5 C3.66 5 4.32 5 5 5 C4.67 6.32 4.34 7.64 4 9 C1.43135272 7.71567636 1.053461 6.63365249 0 4 C0 2.68 0 1.36 0 0 Z " fill="#3D5A6B" transform="translate(317,368)"/>
<path d="M0 0 C2.46751239 3.70126859 2.30721156 5.62223532 2 10 C1 12.4375 1 12.4375 0 14 C-0.66 12.02 -1.32 10.04 -2 8 C-1.34 8 -0.68 8 0 8 C0 5.36 0 2.72 0 0 Z " fill="#8FA0B2" transform="translate(259,362)"/>
<path d="M0 0 C2 3 2 3 1.875 5.0625 C1 7 1 7 -3 9 C-2.01 6.03 -1.02 3.06 0 0 Z " fill="#526376" transform="translate(295,357)"/>
<path d="M0 0 C2 1.375 2 1.375 4 3 C4 3.66 4 4.32 4 5 C2.35 5.33 0.7 5.66 -1 6 C-1.33 5.01 -1.66 4.02 -2 3 C-1.34 2.01 -0.68 1.02 0 0 Z " fill="#29384F" transform="translate(144,350)"/>
<path d="M0 0 C1.4800841 0.11362262 2.95910074 0.24122908 4.4375 0.375 C5.26121094 0.44460938 6.08492187 0.51421875 6.93359375 0.5859375 C7.95646484 0.79089844 7.95646484 0.79089844 9 1 C9.33 1.66 9.66 2.32 10 3 C6.37 3 2.74 3 -1 3 C-0.67 2.01 -0.34 1.02 0 0 Z " fill="#223448" transform="translate(202,325)"/>
<path d="M0 0 C2 3 2 3 2 6 C0.02 6 -1.96 6 -4 6 C-2.68 4.02 -1.36 2.04 0 0 Z " fill="#27394E" transform="translate(361,371)"/>
<path d="M0 0 C0.33 0 0.66 0 1 0 C1.66 3.63 2.32 7.26 3 11 C1.68 11 0.36 11 -1 11 C-0.67 7.37 -0.34 3.74 0 0 Z " fill="#4A5768" transform="translate(354,366)"/>
<path d="M0 0 C2.475 0.495 2.475 0.495 5 1 C5 2.65 5 4.3 5 6 C4.67 5.34 4.34 4.68 4 4 C2.68 4 1.36 4 0 4 C0 2.68 0 1.36 0 0 Z " fill="#4A566F" transform="translate(260,366)"/>
<path d="M0 0 C0.66 1.32 1.32 2.64 2 4 C0.625 6 0.625 6 -1 8 C-1.66 8 -2.32 8 -3 8 C-2.37240135 5.07120629 -1.41377341 2.63904371 0 0 Z " fill="#5B687F" transform="translate(363,349)"/>
<path d="M0 0 C0.33 0.66 0.66 1.32 1 2 C2.98 2 4.96 2 7 2 C5.02 2.99 5.02 2.99 3 4 C3 4.99 3 5.98 3 7 C2.01 6.67 1.02 6.34 0 6 C0 4.02 0 2.04 0 0 Z " fill="#6A7F8F" transform="translate(289,175)"/>
<path d="M0 0 C2.475 0.495 2.475 0.495 5 1 C5.66 2.98 6.32 4.96 7 7 C6.34 7 5.68 7 5 7 C5 6.34 5 5.68 5 5 C4.34 5 3.68 5 3 5 C1.375 2.5 1.375 2.5 0 0 Z " fill="#6B7F93" transform="translate(198,370)"/>
<path d="M0 0 C0.66 0.66 1.32 1.32 2 2 C1.625 5.625 1.625 5.625 1 9 C0.67 8.34 0.34 7.68 0 7 C-0.66 6.67 -1.32 6.34 -2 6 C-2 4.68 -2 3.36 -2 2 C-1.34 2 -0.68 2 0 2 C0 1.34 0 0.68 0 0 Z " fill="#395066" transform="translate(210,368)"/>
<path d="M0 0 C1.9453125 -0.29296875 1.9453125 -0.29296875 4.125 -0.1875 C5.40375 -0.125625 6.6825 -0.06375 8 0 C6.25 1.5625 6.25 1.5625 4 3 C1.75 2.6875 1.75 2.6875 0 2 C0 2.66 0 3.32 0 4 C-0.66 3.67 -1.32 3.34 -2 3 C-1.34 2.01 -0.68 1.02 0 0 Z " fill="#737B8C" transform="translate(161,347)"/>
<path d="M0 0 C2.76223278 2.76223278 2.57856291 5.20706617 3 9 C2.34 9 1.68 9 1 9 C-0.4783226 6.04335481 -0.06032783 3.25770263 0 0 Z " fill="#455969" transform="translate(305,215)"/>
<path d="M0 0 C0.33 0.66 0.66 1.32 1 2 C-1.31 2 -3.62 2 -6 2 C-6.33 1.34 -6.66 0.68 -7 0 C-3.88407501 -1.03864166 -2.9737344 -1.09036928 0 0 Z " fill="#25384A" transform="translate(319,375)"/>
<path d="M0 0 C1.98 0 3.96 0 6 0 C5.67 0.66 5.34 1.32 5 2 C4.01 2.33 3.02 2.66 2 3 C0.79117904 5.00016466 0.79117904 5.00016466 0 7 C0 4.69 0 2.38 0 0 Z " fill="#213549" transform="translate(184,348)"/>
<path d="M0 0 C3.875 1.75 3.875 1.75 5 4 C2.69 4 0.38 4 -2 4 C-1.34 2.68 -0.68 1.36 0 0 Z " fill="#1A334C" transform="translate(274,274)"/>
<path d="M0 0 C0.99 0 1.98 0 3 0 C3 1.32 3 2.64 3 4 C1.35 4.33 -0.3 4.66 -2 5 C-1.34 3.35 -0.68 1.7 0 0 Z " fill="#2E4C63" transform="translate(279,264)"/>
<path d="" fill="#FFFFFF" transform="translate(0,0)"/>
<path d="" fill="#FFFFFF" transform="translate(0,0)"/>
<path d="" fill="#FFFFFF" transform="translate(0,0)"/>
<path d="" fill="#FFFFFF" transform="translate(0,0)"/>
<path d="" fill="#FFFFFF" transform="translate(0,0)"/>
<path d="" fill="#FFFFFF" transform="translate(0,0)"/>
<path d="" fill="#FFFFFF" transform="translate(0,0)"/>
<path d="" fill="#FFFFFF" transform="translate(0,0)"/>
<path d="" fill="#FFFFFF" transform="translate(0,0)"/>
<path d="" fill="#FFFFFF" transform="translate(0,0)"/>
<path d="" fill="#FFFFFF" transform="translate(0,0)"/>
<path d="" fill="#FEFFFF" transform="translate(0,0)"/>
<path d="" fill="#FFFFFF" transform="translate(0,0)"/>
<path d="" fill="#FFFFFF" transform="translate(0,0)"/>
<path d="" fill="#FFFFFF" transform="translate(0,0)"/>
<path d="" fill="#FFFFFF" transform="translate(0,0)"/>
<path d="" fill="#FFFFFF" transform="translate(0,0)"/>
<path d="" fill="#FFFFFF" transform="translate(0,0)"/>
<path d="" fill="#FFFFFF" transform="translate(0,0)"/>
<path d="" fill="#FFFFFF" transform="translate(0,0)"/>
<path d="" fill="#FFFFFF" transform="translate(0,0)"/>
<path d="" fill="#FFFFFF" transform="translate(0,0)"/>
<path d="" fill="#FFFFFF" transform="translate(0,0)"/>
<path d="" fill="#FFFFFF" transform="translate(0,0)"/>
<path d="" fill="#FFFFFF" transform="translate(0,0)"/>
<path d="" fill="#FFFFFF" transform="translate(0,0)"/>
<path d="" fill="#FFFFFF" transform="translate(0,0)"/>
<path d="" fill="#FFFFFF" transform="translate(0,0)"/>
<path d="" fill="#FFFFFF" transform="translate(0,0)"/>
<path d="" fill="#FFFFFF" transform="translate(0,0)"/>
<path d="" fill="#FFFFFF" transform="translate(0,0)"/>
<path d="" fill="#FFFFFF" transform="translate(0,0)"/>
<path d="" fill="#FFFFFF" transform="translate(0,0)"/>
<path d="" fill="#FFFFFF" transform="translate(0,0)"/>
<path d="" fill="#FFFFFF" transform="translate(0,0)"/>
<path d="" fill="#FFFFFF" transform="translate(0,0)"/>
<path d="" fill="#FFFFFF" transform="translate(0,0)"/>
<path d="" fill="#FFFFFF" transform="translate(0,0)"/>
<path d="" fill="#FFFFFF" transform="translate(0,0)"/>
<path d="" fill="#FFFFFF" transform="translate(0,0)"/>
<path d="" fill="#FFFFFF" transform="translate(0,0)"/>
<path d="" fill="#FFFFFF" transform="translate(0,0)"/>
<path d="" fill="#FFFFFF" transform="translate(0,0)"/>
<path d="" fill="#FFFFFF" transform="translate(0,0)"/>
<path d="" fill="#FFFFFF" transform="translate(0,0)"/>
<path d="" fill="#FFFFFF" transform="translate(0,0)"/>
<path d="" fill="#FEFFFF" transform="translate(0,0)"/>
<path d="" fill="#FFFFFF" transform="translate(0,0)"/>
<path d="" fill="#FFFFFF" transform="translate(0,0)"/>
<path d="" fill="#FFFFFF" transform="translate(0,0)"/>
<path d="" fill="#FFFFFF" transform="translate(0,0)"/>
<path d="" fill="#FFFFFF" transform="translate(0,0)"/>
<path d="" fill="#FFFFFF" transform="translate(0,0)"/>
<path d="" fill="#FFFFFF" transform="translate(0,0)"/>
<path d="" fill="#FFFFFF" transform="translate(0,0)"/>
<path d="" fill="#FFFFFF" transform="translate(0,0)"/>
<path d="" fill="#FFFFFF" transform="translate(0,0)"/>
<path d="" fill="#FFFFFF" transform="translate(0,0)"/>
<path d="" fill="#FFFFFF" transform="translate(0,0)"/>
<path d="" fill="#FFFFFF" transform="translate(0,0)"/>
<path d="" fill="#FFFFFF" transform="translate(0,0)"/>
<path d="" fill="#FFFFFF" transform="translate(0,0)"/>
<path d="" fill="#FFFFFF" transform="translate(0,0)"/>
<path d="" fill="#FFFFFF" transform="translate(0,0)"/>
<path d="" fill="#FFFFFF" transform="translate(0,0)"/>
<path d="" fill="#FFFFFF" transform="translate(0,0)"/>
<path d="" fill="#FFFFFF" transform="translate(0,0)"/>
<path d="" fill="#FFFFFF" transform="translate(0,0)"/>
<path d="" fill="#FFFFFF" transform="translate(0,0)"/>
<path d="" fill="#FFFFFF" transform="translate(0,0)"/>
<path d="" fill="#FFFFFF" transform="translate(0,0)"/>
<path d="" fill="#FFFFFF" transform="translate(0,0)"/>
<path d="" fill="#FFFFFF" transform="translate(0,0)"/>
<path d="" fill="#FFFFFF" transform="translate(0,0)"/>
<path d="" fill="#FFFFFF" transform="translate(0,0)"/>
<path d="" fill="#FFFFFF" transform="translate(0,0)"/>
<path d="" fill="#FFFFFF" transform="translate(0,0)"/>
<path d="" fill="#FFFFFF" transform="translate(0,0)"/>
<path d="" fill="#FFFFFF" transform="translate(0,0)"/>
<path d="" fill="#FFFFFF" transform="translate(0,0)"/>
<path d="" fill="#FFFFFF" transform="translate(0,0)"/>
<path d="" fill="#FFFFFF" transform="translate(0,0)"/>
<path d="" fill="#FFFFFF" transform="translate(0,0)"/>
<path d="" fill="#FFFFFF" transform="translate(0,0)"/>
<path d="" fill="#FFFFFF" transform="translate(0,0)"/>
</svg>
